<?xml version="1.0" encoding="UTF-8"?>
<svg width="1200pt" height="1200pt" version="1.1" viewBox="0 0 1200 1200" xmlns="http://www.w3.org/2000/svg">
 <g>
  <path d="m1094.7 386.98c1.3203 1.1055 2.2812 1.9062 3.2383 2.6992-1.0664 1.1523-2.1484 2.3047-3.2148 3.457-0.82812-0.9375-2.2695-1.8359-2.3047-2.7969-0.046875-0.96094 1.2969-2.0039 2.2812-3.3594z"/>
  <path d="m1080.9 520.62c-0.58984 0.51562-1.1641 1.0195-1.7539 1.5352-0.48047-0.625-1.0078-1.2227-1.3789-1.9062-0.058594-0.10938 0.73047-0.94922 0.91016-0.875 0.78125 0.29688 1.4883 0.80078 2.2227 1.2461z"/>
  <path d="m495 416.34c3.9961-1.4766 7.9062-3.8633 12-4.2109 5.1953-0.44531 13.262 3.3359 6.6367-7.3906-0.45703-0.73047 0.66016-3.5156 1.0078-3.5039 12.336 0.23828 9.3477-12.254 14.652-17.867 3.0859-3.2656 4.2734-3.625 7.8594-1.0547 6.6719 4.7891 13.523 11.195 21.035 12.395 6.5273 1.043 11.555 0.53906 13.598 7.8828 0.13281 0.49219 2.293 0.97266 2.3633 0.83984 0.75781-1.4023 1.2109-2.9648 1.8945-4.4141 3.1211-6.6953 5.5781-13.883 9.8047-19.812 1.5586-2.1953 8.9414-3.2891 10.789-1.6445 4.6211 4.0938-0.14453 6.8867-3.3242 9.9492-2.375 2.2812-4.9453 5.9297-4.8477 8.8906 0.23828 6.8516 5.4844 2.207 8.5664 2.8906 1.8945 0.42188 4.8594 2.543 4.8125 3.8164-0.10938 2.9883-0.99609 6.5625-2.8906 8.7344-3.3828 3.8867-7.7539 6.9375-11.711 10.332-0.22656 0.76953-0.45703 1.5469-0.69531 2.3164 0.20312-0.79297 0.40625-1.5859 0.60156-2.3867 11.496 3.9961 13.559 2.7617 17.855-9.3242 1.0312-2.8789 3.5273-5.2305 5.3516-7.8359l-0.16797-0.12109c0.69531 1.2617 1.0664 2.9766 2.125 3.6836 3.4453 2.2812 8.4102 3.4062 10.332 6.5039 1.4766 2.375-1.0938 7.043-1.2344 10.715-0.14453 3.5391-0.30078 7.4531 0.97266 10.621 4.3789 10.969 4.4023 10.789-8.0508 10.199-4.1758-0.19141-8.543 1.9062-12.625 3.4688-0.67188 0.25391-0.32422 3.168-0.44531 4.8477 1.2344-0.40625 2.6523-0.53906 3.6602-1.2461 9.3242-6.5898 14.676-5.4258 19.738 4.0938 0.94922 1.7773 4.0547 4.4141 4.4531 4.1523 8.3867-5.7109 9.8398 2.832 12.875 6.5508 5.5195 6.7578 10.199 14.184 15.359 21.227 0.085938 0.10938 1.8594-1.043 2.8672-1.5859 1.1172-0.60156 2.832-1.9805 3.2773-1.6445 10.488 7.7031 9.4453-0.9375 9.8164-6.9961 0.26562-4.3438 1.0938-8.7969-6.5156-5.0508-3.0977 1.5234-8.9766-1.3438-13.031-3.3359-6.3711-3.1328-4.0938-7.3906-0.55078-11.578 0.53906-0.64844-0.44531-2.5547-0.69531-3.8867-0.3125-1.668-0.57422-3.3594-0.85156-5.0273 1.5977 0.60156 3.6836 0.75781 4.6914 1.8828 3.7188 4.1406 6.7812 7.7539 9.2266-1.0312 0.39453-1.4297 4.7539-3.3711 5.5547-2.7734 2.4258 1.8125 4.1758 4.6328 5.8203 7.2969 1.0195 1.6445 1.3789 3.707 2.0273 5.5781 0.82812-0.42188 2.3398-0.78125 2.3867-1.2734 0.25391-2.543 1.0664-5.6992-0.058594-7.5703-2.4492-4.0312-6.3711-7.1758-8.9023-11.172-1.3203-2.0898-0.96094-5.2305-1.3555-7.8945 2.7852 1.2969 6.4922 1.8828 8.1484 4.0547 3.3945 4.4648 6.1562 9.5898 8.3164 14.785 1.8125 4.3672 5.4844 5.4844 7.3906 2.5312 5.2422-8.1133 17.113-4.9805 21.637-13.789 0.5625-1.1055 3.1328-1.1875 4.7773-1.7539 0.25391 2.207 0.55078 4.4023 0.71875 6.6133 0.023437 0.38281-0.40625 0.85156-0.71875 1.1992-2.9414 3.3711-8.3516 6.7695-8.2812 10.055 0.097656 4.6445 4.2461 9.1914 6.6602 13.789 0.96094 0.97266 1.9062 1.9453 2.8672 2.9141l-0.046875 0.046875c-0.97266-0.96094-1.9453-1.9062-2.9141-2.8672-0.035156-3.6953-0.97266-7.7031 0.14453-11.016 1.0195-3.0703 4.2227-5.4102 6.4688-8.0742-0.21484 2.6992-1.1055 5.6055-0.40625 8.0508 0.51563 1.8125 3.0859 3.0352 4.7383 4.5352 0.39453 0.51562 0.78125 1.0312 1.1523 1.5703-0.60156 7.2344 1.1406 11.062 9.7422 8.4844 11.652-3.4922 23.508-6.3242 35.387-8.9141 3.5273-0.76953 7.7539-0.66016 11.125 0.53906 8.1133 2.8789 9.5625 10.738 2.4492 15.109-4.9062 3-7.9219 3.7422-5.6055 11.137 1.2461 3.9844 1.9062 6.875 4.5117 10.727 5.4844 8.0898 10.922 8.1484 19.066 5.8906 4.3086-1.1875 12.023-6.3125 13.188 4.4297 9.8047-0.66016 20.363 0.74219 29.219-2.4961 11.676-4.2852 21.602-2.4609 31.465 2.7109 9.4688 4.9688 10.105 14.484 1.1406 20.52-5.3398 3.6016-12.168 5.1016-18.469 7.1172-2.1602 0.68359-5.2188-0.80469-7.0195 0.20312-3.3359 1.8828-6.0586 4.8711-9.0234 7.4023 3.3359 0.5625 7.2852 2.5547 9.875 1.4297 7.6211-3.3125 11.328-0.91016 14.496 6.1562 1.1875 2.6641 5.3516 3.9727 8.1016 5.9766 2.1133 1.5469 4.1523 3.2031 6.2148 4.8125-2.3867 1.7148-4.6211 3.7695-7.2227 5.0391-2.4844 1.2109-5.3633 1.5977-8.0625 2.3398l0.085938-0.10938c-1.0195 1.0078-2.0391 2.0156-3.0586 3.0234l0.23828-0.15625c-1.9805-1.9062-3.9492-3.8281-5.9297-5.7344 1.3672-0.34766 3.8398-0.52734 3.9102-1.0547 0.55078-3.7305 0.80469-7.5352 0.66016-11.305-0.035156-0.79297-2.1016-1.5117-3.2266-2.2578-0.20312 3.0352-0.37109 6.0586-0.61328 9.0977-0.15625 1.8828-0.40625 3.7578-0.61328 5.6406-9.4219 2.832-6.3008 11.484-6.1094 16.934 0.25391 7.0312 0.32422 12.938-3.9258 18.91-1.1523 1.6211 0.82812 5.4492 1.3672 8.2695 1.4141-1.7148 2.6289-3.6719 4.2969-5.0625 2.1133-1.7656 4.7656-4.5703 6.8867-4.332 16.957 1.9062 34.598 1.8125 48.445 14.461 8.4492 7.7266 8.9141 13.094 1.3672 21.949-1.8125 2.1367-3.707 4.2344-5.2422 6.5625-5.0273 7.668-9.9727 9.1562-15.312 2.3867-5.7617-7.3086-12.949-7.6914-20.484-7.3203-7.4883 0.37109-12.648-2.0898-17.137-8.0625-5.3867-7.1875-10.754-7.9805-15.793-0.73047-7.4766 10.738-18.047 16.801-28.645 23.051-3.2773 1.9336-8.3047 3.5742-11.52 2.4492-10.176-3.5742-12.672 6.5391-19.008 9.5273-0.28906 0.13281-0.011719 3.0234 0.63672 3.3359 8.8555 4.2969 6.5039 9.625 2.5664 16.297-4.4648 7.5586-2.5078 9.4805 6.5508 9.6133 5.207 0.070312 10.402 1.6797 15.602 2.6055-4.3906 3.3594-8.3398 7.9922-13.297 9.7695-5.7734 2.0625-10.777 3.2031-11.473 10.559-0.097656 1.0195-4.3906 2.5781-6.5508 2.3281-14.594-1.7539-16.812 0.49219-22.355 14.426-2.125 5.3516-1.1055 6.6484 2.8789 7.5586 6.4453 1.4766 13.379 3.9609 19.5 2.7969 5.5195-1.043 9.7305-0.26562 14.137 1.9219 11.941 5.9414 26.039 7.9219 34.066 20.879 6.0234 9.7305 8.8203 20.137 3.5039 29.711-5.5078 9.9258-14.137 18.203-27.406 17.617-2.3867-0.10938-4.8477 0.21484-7.1758-0.22656-6.1094-1.1641-7.2461 1.957-7.2852 7.1641-0.058594 9.0469-1.8242 17.746-12.133 20.363-6.8281 1.7383-14.652-5.8203-18.492-17.062-1.2109-3.5625-1.0781-7.5859-2.2695-11.16-1.3203-3.9258-2.5938-8.5938-5.4961-11.039-2.7852-2.3516-7.6094-2.2812-11.531-3.2656-0.097656 4.5586 0.44531 8.0742 6.4453 8.8438 1.5352 0.19141 2.9648 5.375 3.4062 8.4258 0.23828 1.6211-1.7383 3.5625-2.7109 5.3633-1.4141-1.7773-2.8438-3.5625-4.2617-5.3398l0.49219-0.45703-0.34766 0.58984c-1.3789-0.38281-3.457-0.33594-4.0195-1.2344-4.0078-6.3477-7.6797-9.8164-15.301-3.5508-6.1562 5.0625-11.746-0.023437-16.129-4.5117-1.8828-1.9336-1.8477-6.0117-3.8633-7.5-4.1992-3.0703-12.383-8.0273-13.332-7.0078-4.2969 4.6328-6.6484 11.062-9.6953 16.848 7.3203 1.9453 6.5391 9.2773 9.1211 14.219 7.9062 15.086-0.35938 45.215-14.977 53.449-3.3477 1.8828-9 1.3672-12.961 0.046875-4.6328-1.5352-8.6523-5.0273-12.781-7.8945-5.6055-3.8867-5.0508-8.7617-1.5586-13.68 10.691-15.059 10.586-14.93 0.625-29.438-2.6406-3.8516-4.0938-8.5078-6.0977-12.805 1.8711-0.85156 3.7578-1.7031 5.6289-2.5547-0.23828-0.34766-0.48047-0.68359-0.71875-1.0312-1.5859 1.2461-3.1797 2.4961-4.7656 3.7422-3.1914-0.58984-7.1055-0.26562-9.3945-2.0273-2.207-1.6914-4.0664-5.7734-3.6367-8.3984 0.43359-2.6289 3.457-5.8086 6.1094-6.9102 9-3.7578 19.668 2.9297 21.383 12.613 0.52734 2.9766 1.668 5.8438 2.5312 8.7617 2.0391-1.0547 5.4102-1.7266 5.8438-3.2383 0.96094-3.3125 0.64844-7.0781 0.37109-10.621-0.097656-1.1641-1.4531-2.7109-2.6172-3.2383-12.086-5.4609-17.398-17.113-24.852-26.809-0.57422-0.75781-1.8125-1.5-1.7656-2.1836 1.1055-14.461-12.203-15.266-20.004-21.266-0.17969-0.92578-0.28906-1.8594-0.55078-2.7617-0.34766-1.1875-0.81641-2.3398-1.2227-3.5156 0.097657 1.2852 0.023438 2.6172 0.35938 3.8398 0.22656 0.85156 1.0078 1.5586 1.5469 2.3398-1.4141 3.0117-2.1484 6.707-4.3672 8.9414-12.238 12.324-8.3047 24.602-0.60156 37.066 5.6875 9.2148-0.71875 22.727-11.508 23.137-11.461 0.43359-20.102 3.3828-22.789 16.246-0.82812 3.9492-3.9609 7.6562-6.7188 10.883-5.0508 5.8906-13.105 6.7305-19.367 2.3281-6.2539-4.3906-9.1797-10.297-4.4766-17.16 3.7812-5.5078 2.7617-8.0391-2.0391-12.637-3.8516-3.6836-4.5859-10.691-6.4805-16.309-0.85156-2.5312-0.32422-5.9648-1.8594-7.7656-7.4648-8.7617-7.8008-17.93-2.3984-27.527 5.6406-10.02 15.121-10.441 25.043-9.3594 1.8945 0.20312 3.793 0.49219 5.6875 0.73047 4.1758 5.3047 8.6172 6.1094 12.301-0.15625 1.2109-2.0742 0.58984-5.2305 0.80469-7.8945-2.1953 0.99609-4.5234 1.7656-6.5508 3.0352-2.3516 1.4766-4.4297 3.3945-6.625 5.125 0.14453-6.5039 0.73047-13.043 0.14453-19.477-0.15625-1.7539-3.8398-3.1914-5.9023-4.7773-1.0781 2.0391-2.6758 3.9727-3.1445 6.1445-0.85156 3.9844 5.3398 10.922-2.4102 11.566-7.3203 0.60156-15.898 5.293-22.812-2.6875-2.9141-3.3711-6.8047-7.3203-10.801-8.0508-10.727-1.9688-16.176 3.6367-17.977 15.121-0.86328 5.4961-2.3398 11.363-5.2305 15.996-8.3164 13.285-17.09 12.059-26.258-0.23828-5.5938-7.5-14.16-14.027-22.789-17.785-19.465-8.4492-26.293-21.371-19.812-47.809 0.097657-0.40625 0.89844-1.0078 0.88672-1.0195-7.3438-7.0938-14.555-14.328-22.367-20.867-0.80469-0.67187-5.9766 2.3164-7.7031 4.6445-4.7031 6.3477-9.9102 9.0469-18.289 8.3633-7.1875-0.58984-14.676 0.085937-20.113 7.9453-4.4648 6.4453-10.152 4.8711-14.664-2.1133-0.75781-1.1758-0.89844-2.7734-1.7031-3.8984-10.992-15.383-10.848-15.227 2.6992-29.605 2.0625-2.1953 1.7656-6.5508 2.7617-9.8398 0.75781-2.5078 1.8125-4.9336 2.7344-7.3906 1.957 1.0664 4.8359 1.6328 5.7109 3.2773 3.1562 5.9023 7.8242 4.8242 13.309 5.1367 6.7578 0.39453 13.922 2.7852 19.871 6.1562 9.5508 5.4102 23.965 4.2227 28.848-5.293 1.6562-3.2383-1.7891-9.7305-4.1289-14.074-0.97266-1.7891-5.375-1.4531-7.9219-2.7109-9.9961-4.9453-11.699-11.617-5.4961-20.785 1.3438-1.9805 2.5938-4.3555 4.5117-5.5312 6.2383-3.8281 7.0195-9.9727 3.8281-14.746-2.7969-4.1758-8.375-7.1172-13.332-9.0469-6.5508-2.5547-14.34-2.3984-20.352-5.6875-4.3438-2.375-8.8086-8.293-9.1797-12.961-0.28906-3.6016 4.9688-9.0977 9.0703-11.23 5.7734-3.0117 10.367-4.4766 8.2305-12.84-0.66016-2.5781 4.5352-6.6484 7.0547-10.031l-0.21484 0.13281c14.977 1.0781 17.641 3.4336 13.43 15.504-2.7734 7.9453 1.7656 6.875 5.9531 6.9961 1.7266 0.046875 4.4766-0.69531 5.1016-1.9219 5.9648-11.82 9.7578-8.4609 13.5 1.4023 0.49219 1.2969 4.2852 2.6406 5.7461 2.0391 6.625-2.7344 12.816-5.7344 20.398-2.6758 3.2891 1.332 15.527-10.02 14.879-14.641-0.63672-4.5234 6.2656-11.027-3.3477-14.195-2.7617-0.91016-6.1328-7.2461-5.3164-9.8516 0.96094-3.0586 5.9648-5.3867 9.6719-6.875 2.3398-0.9375 5.5664 0.10938 8.3398 0.57422 3.8633 0.63672 7.6797 1.5703 11.508 2.375-0.94922-4.2461-1.5469-8.6289-2.9766-12.707-0.71875-2.0625-4.1055-3.5156-4.2461-5.3984-0.23828-3.0859 0.15625-8.0273 2.0742-9.1797 11.746-7.0078 18.562-15.938 22.297-29.977 3.2031-12.07 8.0156-23.027 4.8711-35.832-0.76953-3.1328 0.83984-6.8398 1.3555-10.285-3.3945 1.5-6.9961 2.6641-10.129 4.5859-5.3516 3.2891-10.465 3.1797-13.68-2.1016-4.3438-7.1406-9.6836-6.2266-15.852-3.7305-1.7773 0.71875-3.6367 1.2227-5.3984 1.9688-4.4023 1.8594-9.793 5.0391-12.602-0.74219-2.8203-5.7852 1.2109-9.5391 6.9375-11.762 1.1992-0.46875 2.1367-4.043 1.6797-5.7734-0.70703-2.6289-3.7812-4.8008-4.0195-7.3438-0.48047-5.0625 0.30078-10.246 0.55078-15.383 4.4648 0.83984 8.9414 1.6445 13.391 2.543 3.1445 0.63672 6.3477 1.1172 9.3477 2.1602 2.375 0.82812 5.8555 1.9219 6.4805 3.7188 2.7461 7.8359 4.6445 15.973 6.8398 24-1.0195 0-2.0391 0.011718-3.0586 0.011718-0.3125-0.26562-0.60156-0.58984-0.94922-0.78125-0.26562-0.14453-0.60156-0.15625-0.91016-0.22656 0.66016 0.28906 1.3203 0.57422 1.9688 0.86328 0.97266 0.94922 1.9453 1.8945 2.9141 2.8438l0.57422 0.79297-0.73047-0.63672c0.0625-0.95703 0.074219-1.9648 0.085938-2.9609zm135.38 77.734c0.28906-0.28906 0.86328-0.63672 0.81641-0.85156-0.14453-0.67188-0.52734-1.2852-0.81641-1.9219 0.68359-2.6992 1.1992-5.4609 2.0898-8.0898 3.3125-9.7305 2.0898-12.336-8.0742-14.555-6.707-1.4648-13.57-2.3281-20.41-3.1211-1.3672-0.15625-4.2617 1.5977-4.1875 1.8711 1.2852 4.8594 1.5117 12.035 4.7656 13.934 7.8594 4.6094 17.172 6.7422 25.895 9.875 0.011718 0.98438 0.023437 1.9688 0.035156 2.9531zm204.54 115.27-0.035156 0.035156zm-198.73-109.4-0.023437-0.023437zm100.78 221.73c1.4297 1.2227 3.0469 2.293 4.2617 3.707 5.9883 6.9258 9.9258 0.625 14.148-2.3281 1.0195-0.70703 1.7539-3.8867 1.1523-4.5352-4.2227-4.4883-9.0977-4.1406-13.957-0.85156-1.9453 1.3203-3.8047 2.7852-5.6992 4.1758-1.8711-5.375-1.6445-10.309 3.0977-14.242-3.8867-2.9023-8.2305-5.3984-11.484-8.8906-1.5469-1.668-2.1719-5.7461-1.2461-7.8945 3.3359-7.7031-1.7773-10.535-6.9102-13.285-10.715-5.7461-22.871-9.3945-28.848-21.648-0.66016-1.3555-4.0781-1.3672-6.2148-2.0156-0.058593 2.4609-1.2227 5.9414-0.023437 7.1992 9.1797 9.7188 9.1094 19.859 3.8164 31.512-1.9336 4.2461-1.1992 9-7.6797 4.8008-1.0078-0.64844-2.6758-0.30078-4.0312-0.40625 0.25391 1.6914-0.097656 3.8633 0.83984 4.9805 9.7578 11.664 19.691 21.359 37.344 21.371 7.3438 0.007813 14.246-2.5 21.434-1.6484zm-95.184-18.469c-0.55078-3.9961-0.86328-6.2539-1.1758-8.5078-1.1641 1.4648-2.0508 3.4219-3.5625 4.2852-2.7734 1.6094-5.9297 2.5547-8.9023 3.8281-2.3516 1.0078-4.668 2.0898-7.0078 3.1328 2.4609 0.53906 4.9219 1.4531 7.4023 1.5352 2.8203 0.097656 5.7969-0.16797 8.4727-1.0078 2-0.63672 3.6211-2.4375 4.7734-3.2656zm7.918-184.63c2.6406-3.0234 5.1719-5.6875 5.0508-5.8203-2.6758-2.7969-5.5312-5.4844-8.7344-7.6328-0.35938-0.23828-4.5352 3.9609-4.3086 4.2852 2.0781 3 4.7188 5.5938 7.9922 9.168zm-169.8 52.586c-5.293-0.63672-7.7891-1.1992-10.273-1.1055-0.9375 0.035156-1.8242 1.5703-2.7344 2.4102 2.4961 0.50391 4.9805 1.1758 7.5 1.4141 0.92578 0.078126 1.9336-0.89453 5.5078-2.7188zm306.94-58.223c-2.1953-1.5703-3.168-2.8203-4.1758-2.8555-1.6445-0.058594-3.3125 0.67187-4.9688 1.0664 1.0312 0.9375 1.957 2.3984 3.1328 2.6523 1.4414 0.30078 3.1094-0.39844 6.0117-0.86328zm-124.11-11.391c-1.3203-1.043-2.6523-2.1016-4.0547-3.0703-0.035157-0.023438-1.2109 1.3203-1.1289 1.4141 1.1523 1.332 2.4102 2.5664 3.6602 3.8164 0.39844-0.57422 0.80469-1.1406 1.5234-2.1602zm-83.145-83.254c0.57422-1.0195 1.1523-1.5859 1.1641-2.1484 0.035156-1.2734-0.19141-2.543-0.32422-3.8164-0.34766 0.53906-0.96094 1.0664-1.0078 1.6328-0.097656 1.2578 0.082031 2.5547 0.16797 4.332zm36.094 22.27-0.070313 0.66016 0.91016-0.25391z"/>
  <path d="m432.62 821.24c9.5898 0.097656 18.395 6.5391 20.375 15.109 2.0039 8.6641-1.2617 15.828-9.0469 18.961-4.6445 1.8594-10.824 0.5625-16.164-0.25391-3.6367-0.55078-6.9258-3.3125-10.559-3.8867-1.7266-0.27734-4.2461 1.9453-5.6875 3.6367-0.50391 0.58984 0.76953 3.4219 1.9062 4.5234 4.9805 4.8359 8.8086 11.219 17.352 11.195 2.1367-0.011719 4.2969 3.9961 6.4336 6.168-2.4492 0.92578-5.0156 1.6094-7.3086 2.832-5.207 2.7617-10.332 5.7109-15.395 8.7227-12.348 7.3438-27.168 3.6602-34.453-8.6289-6.3711-10.766-3.3359-21.059 8.5312-25.453 5.8789-2.1719 7.9062-6.3125 11.496-10.645 8.3633-10.086 16.605-22.398 32.52-22.281z"/>
  <path d="m474.8 897.18c1.7266 3.3711 2.7852 7.3906 5.3047 9.9961 9.7188 10.008 3.3359 22.668 5.7852 33.852 0.43359 1.957-4.3672 6.0859-7.5234 7.6445-14.543 7.1523-43.273-7.332-43.523-23.137-0.16797-10.477 3.707-21.469 7.8242-31.367 2.293-5.4961 6.4688-9.2891 0.51562-14.605-0.88672-0.79297-1.1641-2.6758-1.1289-4.0312 0.12109-4.0781 0.52734-8.1484 0.82812-12.227 5.1016 0.53906 10.801-0.10938 15.059 2.0742 2.4727 1.2734 3.0703 7.0078 3.6484 10.859 0.32422 2.1484-0.85156 4.668-1.8125 6.8281-1.8594 4.2227-0.61328 5.3281 3.8281 6.625 4.1641 1.2227 7.5586 5.0391 11.305 7.7266z"/>
  <path d="m443.44 436.78c3.3242 2.5312 7.4141 4.5117 9.8047 7.7383 3.1914 4.3203 7.5 9.9844 6.8281 14.375-0.67187 4.3672-6.6719 10.766-10.812 11.148-9.5508 0.88672-15.266 7.1289-22.344 11.566-0.68359 0.71875-1.3789 1.4414-2.0625 2.1484-0.61328 0.45703-1.1523 0.99609-1.6211 1.6094l-0.22656 0.22656c-18.434-0.9375-29.051-14.711-24.324-31.586 2.9141-10.391 9.7188-14.207 19.414-9.6836 8.6406 4.0312 15.469 6.7695 15.996-7.043 0.011718-0.44531 5.7852-0.67188 8.8672-1.0078z"/>
  <path d="m388.55 548.82c-13.129-5.0273-26.555-9.4336-39.289-15.312-8.1602-3.7695-9.0586-12.047-3.7422-19.367 6.7305-9.2539 19.922-10.391 28.367-3.0703 2.1953 1.8945 6.0703 2.2695 9.2383 2.5078 4.1523 0.3125 8.4492-0.80469 12.527-0.22656 7.1172 1.0195 12.457 4.7266 13.586 12.504 1.0781 7.4297-1.7148 13.02-8.3984 16.547-4.1523 2.1953-8.3398 4.3555-12.504 6.5391z"/>
  <path d="m765.73 393.43c2.1836-7.1758 3.9609-14.52 6.8047-21.422 0.94922-2.3164 4.4297-3.9375 7.0781-5.1016 2.9531-1.3086 6.2773-1.8828 9.4805-2.5078 4.4141-0.86328 8.8672-1.4766 13.309-2.207 0.10938 5.1719 0.69531 10.391 0.12109 15.48-0.28906 2.5938-2.2188 5.4258-4.2109 7.2969-4.1172 3.8516-2.6523 4.6562 1.8711 5.9531 6.2031 1.7773 11.328 6.8047 6.0703 12.254-2.9023 3-13.273 3.5625-16.199 0.83984-7.2734-6.7578-11.23-6.4453-17.039 1.1523-3.9258 5.125-17.594 3.7812-20.914-1.7383-1.8125-3.0117-1.6562-7.2227-2.3867-10.883 3.0234-0.17969 6.0586-0.5625 9.0703-0.45703 2.375 0.097656 4.7148 0.81641 7.0664 1.2617-0.13281 1.9688-0.25391 3.9375-0.38281 5.9023 1.5703-1.5586 3.1328-3.1211 4.7031-4.6797-1.4883-0.40234-2.9648-0.77344-4.4414-1.1445z"/>
  <path d="m307.84 418.73c7.332 0.9375 14.531 3.1328 17.461 11.723 2.8672 8.4258-0.99609 19.105-9.1328 23.664-5.3867 3.0352-11.242 5.3867-17.148 7.2734-1.8242 0.57422-4.5703-1.2109-6.707-2.2812-7.0781-3.5273-8.2578-15.098-18.949-14.004-0.49219 0.046876-2.0508-3.8984-1.8008-4.0781 10.824-7.5 21.781-14.82 32.785-22.055 0.69531-0.44531 1.8828-0.14453 3.4922-0.24219z"/>
  <path d="m267.77 606.32c6.4805 3.5898 9.168-1.2852 11.965-5.9531 0.73047-1.2344 1.4414-2.4844 2.2422-3.6719 3-4.4297 4.1172-13.02 11.496-9.8516 6.3242 2.7109 5.2188 9.168 1.0195 14.531-0.34766 0.44531 1.3906 3.4062 2.7227 4.0938 2.0156 1.0312 5.3398 0.3125 6.6953 1.7148 4.1875 4.2969 7.7148 9.2383 11.496 13.934-4.1172 2.0391-8.2188 4.1172-12.359 6.0859-2.1016 0.99609-5.1367 1.1992-6.2891 2.8086-5.2188 7.2617-10.344 3.3828-14.461-0.37109-7.6328-6.9609-14.438-10.836-21.66 0.27734-0.67188 1.0312-4.5703 1.4531-4.7539 1.0781-1.9805-4.0938-5.1836-8.5547-4.8125-12.613 0.70313-7.7188 8.3203-12.473 16.699-12.062zm1.8711 10.176c-1.7773-0.35938-3.1211-0.76953-4.4648-0.82812-0.69531-0.023437-1.4141 0.60156-2.125 0.92578 1.2969 0.37109 2.5781 0.92578 3.8984 1.0547 0.71094 0.070312 1.4922-0.61328 2.6914-1.1523z"/>
  <path d="m268.95 422.96c-10.727 0.22656-18.445-5.9531-19.066-15.277-0.66016-9.8633 10.68-20.426 21.84-20.352 9.6133 0.070312 18.359 7.9062 18.434 16.5 0.066406 10.211-9.543 18.875-21.207 19.129z"/>
  <path d="m480.11 1062c-11.82 0.26563-17.594-4.2344-20.281-13.141-0.92578-3.0469-3.0586-5.7852-3.7188-8.8555-0.91016-4.2344-2.8438-11.113-1.0078-12.527 4.3555-3.3594 10.883-5.9883 16.141-5.3984 3.5273 0.39453 8.5078 6.5508 8.9883 10.586 0.60156 5.1016 1.5703 8.3164 5.3984 11.902 2.4961 2.3516 4.4531 8.3516 3.1445 10.922-1.7891 3.5234-6.9258 5.3125-8.6641 6.5117z"/>
  <path d="m633.37 381.83c-1.3672 2.8555-2.7461 5.7109-4.1172 8.5781-2.5664-3.0859-6.9102-5.9297-7.3555-9.2891-1.1055-8.2578-1.5977-17.004 0.12109-25.02 0.74219-3.4688 7.5469-5.6406 11.594-8.4102 2.0156 3.2656 4.1172 6.4922 5.9766 9.8398 0.37109 0.68359 0.011718 1.9219-0.30078 2.8086-1.3438 3.9727-2.7969 7.9219-4.1992 11.867 4.668-0.66016 9.3242-1.668 14.016-1.8477 2.1719-0.085938 4.4023 1.4023 6.6133 2.1836 0.43359 0.43359 0.86328 0.86328 1.3086 1.2852-4.0781 13.98-15.012 7.9453-23.809 8.1484-0.12109-0.43359-0.19141-0.88672-0.38281-1.2852-0.14453-0.30078-0.45703-0.51562-0.69531-0.76953 0.41406 0.63672 0.82422 1.2734 1.2305 1.9102zm-4.1758-22.344-0.48047 1.1875 0.51562 0.19141z"/>
  <path d="m379.18 814.95c-0.89844 2.207-1.4531 5.8438-2.6641 6.0859-2.293 0.44531-5.8672-0.27734-7.3203-1.9219-6.6133-7.4648-13.367-14.977-18.695-23.34-4.5859-7.1875-1.2227-11.797 7.2969-11.629 7.8828 0.15625 14.039 3.7422 16.715 11.16 2.2461 6.2266 3.1328 12.922 4.668 19.645z"/>
  <path d="m882.23 673.78c-0.3125 5.7734-0.046874 11.148-1.1172 16.262-0.61328 2.9141-3.2148 7.4141-5.2305 7.5859-3.1328 0.26562-8.207-1.7031-9.4688-4.2227-2.5938-5.1953-5.3281-11.879-4.1055-17.039 1.6797-7.1523 6.4219-13.836 10.848-20.004 2.9883-4.1758 7.1055-3.168 8.0742 2.1484 0.94141 5.1289 0.73828 10.48 1 15.27z"/>
  <path d="m725.41 382.22c3.9609 1.9336 9.0234 4.2617 13.895 6.9727 0.51562 0.28906 0.10937 3.9102-0.34766 4.0195-7.9336 1.8828-14.797 9.2891-24.254 3.8281-4.3789-2.5312-9.7578-3.8516-13.598 2.6875-0.99609 1.6914-5.6992 2.0625-8.4258 1.5586-1.5859-0.28906-4.0938-4.0781-3.625-5.3164 1.0078-2.6758 3.2891-6.0977 5.7344-6.793 9.6211-2.7422 19.477-4.5195 30.621-6.957z"/>
  <path d="m489.28 865.66c-1.6094-0.69531-3.2031-1.3906-4.8125-2.0898 1.0938-1.8945 1.7656-4.8359 3.3711-5.4844 4.6562-1.9062 9.8164-4.3203 14.52-3.8633 5.0156 0.48047 10.586 3.1445 14.207 6.625 1.6094 1.5469 0.21484 9.8164-1.8945 10.871-3.9102 1.957-9.5273 1.6562-14.113 0.73047-2.6758-0.53906-3.6133-3.1211-7.9453-1.0312-7.9336 3.8164-2.6992-3.3359-3.2891-5.7227-0.007812 0-0.042968-0.035156-0.042968-0.035156z"/>
  <path d="m796.5 741.02c6.5156-5.2305 12.949-10.57 19.645-15.551 0.9375-0.69531 3.5625-0.097656 4.7891 0.78125 5.7617 4.1055 6.1914 18.695 0.55078 22.871-5.1836 3.8398-9.5391 1.0195-11.641-3.7188-2.9297-6.6367-6.7305-5.1953-11.27-2.6055-0.69531-0.58984-1.3789-1.1875-2.0742-1.7773z"/>
  <path d="m401.07 709.04c0.45703-2.3281 0.89844-4.6562 1.3555-6.9844 2.4258 0.92578 4.9688 1.5977 7.2344 2.8086 6.1094 3.2656 8.8789 8.4727 7.7031 15.348-1.0195 5.9531-4.4648 9.6836-10.871 8.4375-6.5156-1.2734-8.3281-5.6758-6.1562-11.773 0.875-2.4375 1.957-4.8125 2.9414-7.2109-0.74219-0.19141-1.4727-0.40625-2.207-0.625z"/>
  <path d="m633.98 830.76c-0.80469 6.8281-4.8828 10.066-11.34 10.367-5.3281 0.23828-11.219-6.3008-8.9766-11.52 1.6445-3.8164 6.8398-7.668 11.016-8.4375 5.832-1.0781 9.2266 3.4453 9.3008 9.5898z"/>
  <path d="m391.48 720.76c1.9805 3.1094 6.0234 6.7578 6.4805 10.801 0.68359 6.0859-2.832 10.922-10.117 10.609-6.0117-0.25391-9.9609-3.0859-9.6016-9.6133 0.36328-6.5078 4.1406-10.156 13.238-11.797z"/>
  <path d="m564.2 373.21c-1.4414-1.8594-3.0352-3.625-4.2852-5.6055-3.793-6.0469-2.2812-11.711 3.9844-13.777 3.3359-1.1055 9.4805 0.86328 11.879 3.6016 4.4883 5.1367 2.3398 10.754-3.6133 13.98-2.3281 1.2617-5.3984 1.1641-8.125 1.6914z"/>
  <path d="m394.79 372.09c0.64844-1.2461 0.28906 0.61328-0.61328 0.9375-1.6562 0.60156-4.7031 1.0547-5.3047 0.22656-5.7461-7.9219-11.16-16.078-16.391-24.348-0.27734-0.43359 2.2578-3.6602 2.9297-3.4805 3.5898 0.9375 8.6641 1.5703 10.141 4.1172 3.6914 6.3203 5.7344 13.617 9.2383 22.547z"/>
  <path d="m860.23 777.02c-4.9688-6.0117-9.5742-9.2539-10.621-13.391-1.5234-6 3.6484-10.512 9.0117-9.6602 3.9844 0.63672 9.5742 5.3047 10.176 8.8906 0.56641 3.4219-4.4258 7.7539-8.5664 14.16z"/>
  <path d="m302.09 774.86c7.5234 0.64844 12.168 0.085938 15.887 1.6797 2.9414 1.2617 5.9414 4.9219 6.625 8.0156 0.44531 2.0039-2.8438 6.4336-5.1836 7.0547-3.0234 0.81641-7.5703-0.097656-10.02-2.0508-3.168-2.5312-4.9453-6.8164-7.2344-10.414-0.74219-1.1641-1.1992-2.5078-1.7891-3.7695 1.582-0.48047 3.1758-0.95703 1.7148-0.51562z"/>
  <path d="m581.4 897.29c0.78125 3.6367 1.6445 7.2461 2.3047 10.906 0.78125 4.332 1.3672 8.6992 2.0391 13.055-4.3789-2.3164-8.6758-4.8359-13.164-6.9258-6-2.7852-7.2734-7.4141-4.6797-12.828 2.8438-5.9141 7.3789-8.5312 13.656-4.0547z"/>
  <path d="m890.62 328.29c-6.3125 7.8711-12.648 15.996-19.332 23.82-0.61328 0.71875-4.0078 0.21484-4.957-0.80469-0.91016-0.97266-1.1055-4.1875-0.26562-4.9688 4.9062-4.5703 9.0977-8.7734 8.7227-16.668-0.085937-1.8711 8.125-4.1992 12.613-6.0859 0.25391-0.082031 1.418 2.0312 3.2188 4.707z"/>
  <path d="m257.68 709.73c-3.9375 2.3281-8.375 7.043-11.664 6.3477-3.793-0.80469-6.5742-6.3828-9.8047-9.8984 3.3008-2.7617 6.5898-7.7031 9.8867-7.7031 3.875 0 7.7656 4.2852 11.641 6.707-0.023437 1.5117-0.035156 3.0352-0.058594 4.5469z"/>
  <path d="m515.89 1069.8c0.30078 9.3828-4.1992 12.504-9.707 11.93-3.793-0.39453-7.2227-4.1523-10.824-6.3945 3.5039-3.3711 6.5039-8.1836 10.668-9.6133 2.7852-0.97656 7.2266 2.8633 9.8633 4.0781z"/>
  <path d="m281.95 355.93c-0.34766-0.32422-0.75781-0.60156-1.0195-0.97266-2.0742-2.9297-4.1289-5.8906-6.1914-8.832 2.0508-0.67188 5.1133-2.543 5.9766-1.8125 4.0078 3.3945 7.5352 7.4141 10.738 11.594 0.19141 0.23828-3.8516 3.9727-6.168 5.7852-1.0312 0.81641-2.8203 1.4883-3.9727 1.1758-2.3398-0.64844-4.4648-2.0273-6.6836-3.0977 2.4336-1.2969 4.8711-2.5703 7.3203-3.8398-0.011719 0 0 0 0 0z"/>
  <path d="m611.61 856.05c4.7031 0.3125 7.4297-0.21484 9.3477 0.78125 3.168 1.6562 5.8203 4.3086 8.6992 6.5391-3.7812 0.86328-7.5234 2.0508-11.352 2.4375-1.6328 0.16797-3.5508-1.1523-5.1484-2.1133-2.832-1.7148-5.5078-3.6719-8.2422-5.5312 2.9375-0.92578 5.8789-1.8594 6.6953-2.1133z"/>
  <path d="m460.57 367.5c-0.55078-1.3203-1.3906-2.5938-1.5859-3.9609-0.49219-3.3945-0.68359-6.8398-0.99609-10.273 3.0234 0.98438 7.2109 1.0938 8.7852 3.1797 2.2188 2.9531 2.4961 7.3672 3.6133 11.148-3.3125-0.070312-6.6133-0.14453-9.9258-0.20312z"/>
  <path d="m324.28 632.82c4.3672 3.457 8.1953 6.4688 12.012 9.4922-2.7461 1.5234-6.0469 4.8477-8.125 4.1992-3.9844-1.2344-7.2734-4.7031-10.848-7.2461 1.8828-1.7539 3.7695-3.4922 6.9609-6.4453z"/>
  <path d="m659.66 359.07c4.6094-3.0469 7.9922-6.0703 8.6289-5.5664 4.0195 3.1211 7.4297 7.0195 11.039 10.656-1.8359 0.89844-4.1406 3-5.4375 2.4961-4.2812-1.668-8.2188-4.2617-14.23-7.5859z"/>
  <path d="m223.75 706.71c-3.1328 3.0469-5.832 5.6641-8.543 8.293-1.7539-2.3164-5.4844-5.7617-4.9062-6.7695 2.2812-4.0312 5.8906-7.3203 9.0117-10.883 1.2812 2.6992 2.5625 5.4023 4.4375 9.3594z"/>
  <path d="m581.55 897.43c-0.35938-4.1172-5.7617-9.6484 1.6094-11.605 2.7461-0.73047 7.1172 2.9766 10.031 5.4844 1.1055 0.94922 0.19141 4.2344 0.20313 6.4453-3.9961-0.15625-7.9922-0.3125-12-0.48047z"/>
  <path d="m482.91 969.11c-6.0703 3.2148-8.9883 5.9766-11.797 5.8789-2.4375-0.085937-4.7656-3.3945-7.1289-5.293 2.3398-2.3867 4.4297-6.3125 7.0781-6.7305 2.5742-0.41016 5.7305 2.7578 11.848 6.1445z"/>
  <path d="m610.39 404.96c-0.60156-0.71875-1.4023-1.3438-1.7383-2.1602-1.2227-2.9766-2.293-6.0117-3.4219-9.0234 4.7656 0.51562 9.5508 0.89844 14.242 1.8242 0.34766 0.070312 0.75781 5.125-0.26562 5.8203-2.5664 1.7656-5.9414 2.3633-8.9883 3.4336z"/>
  <path d="m786.94 269.64c2.2695 2.1016 4.3438 4.0312 6.4336 5.9648-2.0898 2.125-4.9922 6.4219-6.0977 6-4.0547-1.5469-7.5117-4.668-11.195-7.1875 3.2031-1.4062 6.3945-2.8086 10.859-4.7773z"/>
  <path d="m863.63 857.79c4.0664 4.8945 7.5 8.9023 10.645 13.129 0.15625 0.21484-2.8438 3.3359-3.0469 3.2031-4.6094-3.2148-9.0352-6.707-13.5-10.141 1.4492-1.5352 2.8906-3.0469 5.9023-6.1914z"/>
  <path d="m588.67 995.55c3.6602 2.4258 6.1211 4.043 8.5938 5.6641-3.3594 2.3047-6.4805 5.3984-10.199 6.5156-1.5234 0.45703-4.332-3.3945-6.5508-5.2812 2.4922-2.1094 5-4.2344 8.1562-6.8984z"/>
  <path d="m573.18 1041c-2.2578-4.5977-4.3203-6.8867-3.8164-8.1719 1.2344-3.168 3.6484-5.8789 5.5781-8.7734 1.6211 1.2344 4.8125 3 4.5977 3.6016-1.2695 3.7578-3.3125 7.2461-6.3594 13.344z"/>
  <path d="m799.78 314.06c-2.5547-5.9531-4.4141-9.9844-5.8438-14.148-0.12109-0.34766 2.8438-2.6289 4.0547-2.3984 5.9141 1.1406 7.2852 5.5938 6.3828 10.836-0.22656 1.3789-1.9414 2.5078-4.5938 5.7109z"/>
  <path d="m673.64 422.11c-2.5312-2.6055-5.4961-4.9453-7.4023-7.9453-0.98438-1.5469-0.5625-4.5 0.22656-6.4062 0.37109-0.91016 3.7812-1.7383 4.5703-1.0938 1.8945 1.5469 4.0781 3.8984 4.2852 6.0977 0.28906 3.0859-1.1172 6.3242-1.8008 9.4922z"/>
  <path d="m622.22 917.39c-1.5234 2.1484-2.9766 4.1875-4.4141 6.2148-0.92578-1.9336-2.4258-3.8047-2.6289-5.8203-0.40625-3.9844-0.14453-8.0273 0.011718-12.047 0.011719-0.20312 2.2578-0.625 2.3164-0.46875 1.5703 3.7812 3.0117 7.6211 4.7148 12.121z"/>
  <path d="m289.5 564.34c1.4141-1.3555 3.3125-4.4883 4.8477-4.3203 2.2812 0.25391 6.3242 3.8047 6.0977 4.2734-1.8945 3.9492-4.5859 7.5234-7.0312 11.195-1.168-3.3008-2.3281-6.6133-3.9141-11.148z"/>
  <path d="m423.46 900.8c1.5117 4.1055 3.457 6.8633 3.1445 9.3477-0.25391 2.1133-3.4062 5.6758-4.7383 5.4609-2.5312-0.42188-4.6914-3.1094-7.0078-4.8477 1.6758-1.957 3.3672-3.9023 8.6016-9.9609z"/>
  <path d="m652.99 428.52c1.1523 2.7227 3.1328 5.4102 3.2266 8.1719 0.085938 2.4727-1.9062 5.0156-2.9883 7.5234-1.2461-1.6328-3.4219-3.1914-3.5508-4.9219-0.27734-3.4453 0.57422-6.9727 0.94922-10.465 0.79297-0.09375 1.582-0.19922 2.3633-0.30859z"/>
  <path d="m227.89 401.3c-4.8828 2.8555-8.7344 5.125-12.602 7.3789-0.78125-1.4141-2.3867-3.9609-2.2305-4.0781 3.3125-2.4102 6.7812-4.668 10.391-6.6133 0.45703-0.25391 1.9219 1.3906 4.4414 3.3125z"/>
  <path d="m388.96 650.72c-4.0664 1.5586-6.7422 3.5898-8.7617 3.0703-1.8359-0.48047-2.9648-3.7188-4.4023-5.7461 1.8477-1.0664 3.9844-3.3008 5.4727-2.9297 2.3398 0.57812 4.2227 2.918 7.6914 5.6055z"/>
  <path d="m719.11 244.03c2.9141-2.1016 4.7031-4.3672 6.2773-4.2344 1.7383 0.15625 4.4766 2.4102 4.5977 3.9375 0.14453 1.7031-2.1484 3.6133-3.3828 5.4375-2.0938-1.4453-4.1953-2.8828-7.4922-5.1406z"/>
  <path d="m656.62 917.76c-2.9297 0.69531-6.0117 2.0039-6.4219 1.4297-2.293-3.2383-4.0938-6.875-5.6641-10.547-0.30078-0.70703 1.1992-2.1836 1.8594-3.3125 2.4844 3.0078 4.957 6.0195 10.227 12.43z"/>
  <path d="m549.1 368.75c-1.7891 2.2578-3.0703 4.2227-3.2891 4.1172-3.3828-1.7266-6.6367-3.7305-9.9258-5.6641 0.91016-0.80469 2.0625-2.4727 2.7109-2.293 3.3008 0.92578 6.4688 2.3164 10.504 3.8398z"/>
  <path d="m669.72 382.88c-2.8555 2.3633-4.8594 4.0078-6.8633 5.6641-1.4414-1.8828-4.1641-3.875-3.9961-5.6172 0.19141-2.0625 2.8438-3.8984 4.4297-5.8438 1.8828 1.707 3.7773 3.4102 6.4297 5.7969z"/>
  <path d="m556.8 993.84c2.1367 2.6172 4.2734 4.7031 4.0312 5.0273-1.9922 2.6875-4.4297 5.0508-6.7188 7.5234-0.88672-1.3555-2.7969-3.1094-2.4609-4.0078 0.99609-2.6523 2.8906-4.9688 5.1484-8.543z"/>
  <path d="m221.52 456.77c2.1836-3.0117 4.3672-6.0234 6.5508-9.0469 1.1523 2.3633 2.8438 4.6211 3.3477 7.1289 1.1406 5.7344 0.32422 5.8906-9.9961 1.8242 0.003906-0.003906 0.097656 0.09375 0.097656 0.09375z"/>
  <path d="m823.7 275.3c-2.2305 2.3984-3.3359 3.5742-4.4414 4.7539-2.2578-2.1836-4.6445-4.2617-6.6133-6.6836-0.22656-0.27734 2.5781-3.7305 2.8555-3.5898 2.5859 1.3672 4.8867 3.1797 8.1992 5.5195z"/>
  <path d="m388.27 618.34c-0.98438-2.5078-1.957-5.0156-2.9414-7.5234 2.5938-0.60156 5.3047-1.9336 7.7539-1.5586 2.1484 0.32422 3.9961 2.5664 5.9766 3.9609-2.4844 0.92578-4.9805 1.8594-7.4648 2.7852-1.0938 0.77734-2.2109 1.5547-3.3242 2.3359z"/>
  <path d="m705.5 827.04c2.4844 3.2773 4.7031 5.0898 5.1836 7.2734 0.27734 1.2734-2.2422 3.168-3.5039 4.7773-1.7148-1.7266-4.1641-3.1914-4.8945-5.2695-0.46875-1.3203 1.582-3.5391 3.2148-6.7812z"/>
  <path d="m653.57 970.45c-2.3984 2.0508-4.4766 4.8594-5.5312 4.5234-1.9453-0.63672-3.3008-3.1094-4.8945-4.8242 1.5977-1.3086 3.1562-3.6133 4.7891-3.6602 1.6055-0.046876 3.2734 2.1836 5.6367 3.9609z"/>
  <path d="m730.59 464.64c0.50391-0.80469 0.82812-1.9922 1.5352-2.3281 3.3125-1.5352 6.7422-2.832 10.129-4.2109 0.28906 1.1875 1.2227 2.8203 0.76953 3.5039-2.6641 3.9492-5.3867 8.375-11.281 4.6094-0.375-0.53125-0.75781-1.0586-1.1523-1.5742z"/>
  <path d="m713.89 854.98c3.0234-2.2305 4.7891-4.5469 6.3125-4.4023 1.8359 0.17969 4.5859 2.2305 4.8828 3.8516 0.27734 1.4766-2.3516 5.0156-3.4219 4.9062-2.2383-0.22656-4.293-2.2578-7.7734-4.3555z"/>
  <path d="m727.04 420.2c-1.6562-4.0547-2.8555-5.5312-2.5312-6.457 1.332-3.7422 3.1445-7.332 4.7891-10.969 1.2109 0.80469 3.5625 1.9688 3.4453 2.3633-1.168 3.832-2.75 7.5273-5.7031 15.062z"/>
  <path d="m426.52 385.56c-1.7148-2.9141-3.7305-4.8242-3.5625-6.5039 0.16797-1.6211 2.6172-2.9883 4.0664-4.4766 1.4648 1.6328 3.9492 3.1797 4.0664 4.9062 0.12109 1.5625-2.3516 3.3047-4.5703 6.0742z"/>
  <path d="m840.79 681.09c3.4062 3.1797 6.1211 5.6172 8.6289 8.2422 0.19141 0.20312-1.0312 1.7773-1.5977 2.6992-2.9648-2.1602-5.9883-4.2617-8.8086-6.6133-0.26172-0.21484 0.80469-2.0156 1.7773-4.3281z"/>
  <path d="m269.16 685.84c-4.4023 1.3086-7.6445 2.3984-10.957 3.0977-0.38281 0.085937-1.2227-2.0625-1.8594-3.1797 3.0859-1.3438 6.1328-2.8086 9.3125-3.8867 0.41797-0.16016 1.5117 1.6523 3.5039 3.9688z"/>
  <path d="m901.49 511.13c-2.6875 2.1836-4.3555 4.0781-6.457 4.9336-0.73047 0.30078-2.5078-1.9922-3.8164-3.0977 1.7656-1.8594 3.3711-3.9258 5.4102-5.3867 0.39844-0.28906 2.4766 1.7617 4.8633 3.5508z"/>
  <path d="m818.26 415.96c2.9648-0.070312 5.9297-0.15625 8.8906-0.22656-1.043 2.4375-1.5352 6.4336-3.2266 7.0195-4.8125 1.6914-6.6602-1.5859-6.5898-6.1328z"/>
  <path d="m837.97 464.98c-2.1953 2.5938-3.6484 4.3086-5.1016 6.0117-1.0664-1.2344-3.1797-2.6875-2.9766-3.6484 0.39453-1.8711 1.8594-3.7578 3.3828-5.0156 0.44531-0.34766 2.6445 1.4531 4.6953 2.6523z"/>
  <path d="m474.93 897.41c1.5977-0.83984 3.6719-2.7734 4.7031-2.3164 2.7344 1.1992 5.0391 3.4219 7.4141 5.3398 0.070312 0.058593-1.0547 2.0508-1.3086 1.9805-2.6055-0.70703-5.207-1.5117-7.668-2.5938-1.2344-0.53906-2.1836-1.7266-3.2656-2.6289z"/>
  <path d="m725.62 346.93c-4.1992 2.0742-6.3711 3.4688-8.7344 4.0781-0.57422 0.14453-1.8125-2.3047-2.7461-3.5625 1.8359-1.1641 3.5508-2.7734 5.5547-3.3242 1.0898-0.30078 2.6719 1.1758 5.9258 2.8086z"/>
  <path d="m564.04 373.11c-0.070312 3.3242-0.13281 6.6367-0.20312 9.9609-1.7773-1.3906-3.5391-2.7852-5.3164-4.1758l-0.16797 0.16797 5.8555-5.8555z"/>
  <path d="m657.5 1024.3c-3.3477 0.28906-5.375 1.0664-6.3828 0.35938-0.96094-0.66016-1.1055-2.8906-1.0195-4.4023 0.023438-0.39453 2.5664-1.2969 3.3242-0.86328 1.2695 0.73047 2.0391 2.3359 4.0781 4.9062z"/>
  <path d="m568.29 887.3c1.2617-1.4531 2.0508-2.375 2.8555-3.3008 1.3555 1.4141 2.7617 2.7969 3.9492 4.3438 0.085937 0.10938-1.8711 2.3164-2.2695 2.1367-1.5234-0.66016-2.7969-1.8828-4.5352-3.1797z"/>
  <path d="m380.29 777.67c-2.0391-1.1055-3.8047-2.0625-5.5664-3.0234 2.4727-0.88672 4.8828-2.207 7.4297-2.4961 1.2109-0.14453 2.6523 1.6562 3.9844 2.5664-1.8398 0.9375-3.6992 1.875-5.8477 2.9531z"/>
  <path d="m416.75 504.1c1.9062 1.6445 4.043 2.6406 4.1406 3.793 0.12109 1.3789-1.5117 2.9141-2.375 4.3789-1.7656-1.0664-3.5273-2.125-5.293-3.1914 0.97266-1.3828 1.957-2.7617 3.5273-4.9805z"/>
  <path d="m610.79 790.87c-1.3789-4.7539-2.5312-6.8516-2.3516-8.8203 0.10938-1.1289 2.3633-2.0625 3.6602-3.0859 0.60156 1.6914 1.6445 3.3828 1.6562 5.0742 0.011719 1.4453-1.1797 2.8984-2.9648 6.832z"/>
  <path d="m258.43 437.86c-1.7148-2.3281-3.6016-3.793-3.4453-4.9688 0.17969-1.3555 2.1719-2.4609 3.3828-3.6836 1.1875 1.1875 3.1914 2.2695 3.3477 3.5742 0.14453 1.2383-1.6445 2.7031-3.2852 5.0781z"/>
  <path d="m842.89 492.05c-1.3555-2.3281-3.0117-3.8984-2.8438-5.2422 0.15625-1.2617 2.2422-2.293 3.4805-3.4219 1.3672 1.5352 2.7227 3.0586 4.0938 4.5977-1.332 1.1406-2.6523 2.2812-4.7305 4.0664z"/>
  <path d="m422.22 487.44c0.20312-0.63672 0.45703-1.2461 0.75781-1.8359l0.22656-0.22656c0.53906-0.52734 1.0781-1.0664 1.6211-1.6094 0.68359-0.71875 1.3789-1.4414 2.0625-2.1484 1.4414 1.1523 3.9258 2.1602 4.1055 3.4688 0.32422 2.4609-0.69531 5.1016-1.1641 7.6562-1.8477-1.0938-3.707-2.1953-5.5547-3.2891-0.68359-0.67188-1.3828-1.332-2.0547-2.0156z"/>
  <path d="m650.02 400.66c-1.0078-3.8633-2.0508-5.7461-1.7539-7.4023 0.25391-1.4023 1.9219-3.3359 3.2031-3.5391 1.2109-0.19141 2.7344 1.5469 4.1172 2.4375-0.92188 1.3984-1.8477 2.8164-5.5664 8.5039z"/>
  <path d="m529.95 1000.1c-1.0664-2.3281-2.2695-3.9375-1.9336-4.3906 1.5-2.0039 3.457-3.6719 5.2422-5.4609 0.69531 1.043 2.2188 2.5547 1.957 3.0352-1.2578 2.1602-3.0234 4.0234-5.2656 6.8164z"/>
  <path d="m466.18 993.43c-2.6875 1.8945-4.0664 3.6133-5.293 3.5156-1.1758-0.097657-2.3867-1.9805-3.1445-3.3242-0.15625-0.27734 1.6562-2.3516 2.5664-2.3633 1.457-0.027344 2.918 0.99609 5.8711 2.1719z"/>
  <path d="m894.01 504.16c-3.1094-4.7266-4.8711-6.5156-4.5469-7.0664 0.79297-1.3438 2.4961-2.7227 3.9727-2.9023 1.2461-0.15625 3.9492 1.5859 3.8516 2.1016-0.39844 2.1055-1.5977 4.0859-3.2773 7.8672z"/>
  <path d="m866.24 705.95c-3.8164 1.2344-5.6172 2.4609-6.9961 2.1016-1.8125-0.48047-3.3008-2.207-4.9219-3.4062 1.7031-0.57422 3.4219-1.6445 5.1016-1.5859 1.5977 0.046875 3.1602 1.2578 6.8164 2.8906z"/>
  <path d="m303.79 586.91c-1.0938-1.7148-2.4375-2.9766-2.1836-3.6133 0.57422-1.4766 1.9219-2.6406 2.9531-3.9375 1.0078 1.0938 2.9766 2.3984 2.7969 3.2539-0.29297 1.3945-1.9844 2.5117-3.5664 4.2969z"/>
  <path d="m447.97 419.81c-2.0508 1.1641-3.3477 2.3633-4.8008 2.5781-0.99609 0.15625-2.1953-1.0547-3.3008-1.6562 1.5-1.332 2.8906-2.832 4.5703-3.8633 0.31641-0.19141 1.7539 1.4414 3.5312 2.9414z"/>
  <path d="m334.11 653.32c1.5586 3.7578 2.6875 5.7969 3.168 7.9805 0.16797 0.75781-1.8008 2.7461-1.9336 2.6758-1.8359-1.043-3.625-2.2422-5.125-3.707-0.22656-0.21875 1.082-2.0039 3.8906-6.9492z"/>
  <path d="m302.7 367.36c-2.0391 1.1406-3.4453 2.3633-3.8633 2.0898-1.7656-1.1758-3.3711-2.6992-4.7148-4.3555-0.22656-0.28906 1.0938-1.8242 1.7031-2.7852 2.0156 1.4766 4.0195 2.9531 6.875 5.0508z"/>
  <path d="m644.81 393.85c-1.8242 1.3438-2.9883 2.6875-4.3906 3.0234-0.68359 0.16797-2.7461-2.0273-2.5664-2.3867 0.66016-1.3906 1.8125-2.7617 3.1328-3.5273 0.40234-0.24219 1.9258 1.4141 3.8242 2.8906z"/>
  <path d="m548.96 881.71c-2.3164 1.7266-3.8633 3.1562-5.6758 4.043-0.43359 0.21484-1.7539-1.3789-2.6523-2.1484 1.4297-1.4766 2.7227-3.1328 4.3672-4.2969 0.37109-0.26172 1.9336 1.1445 3.9609 2.4023z"/>
  <path d="m517.61 831.3c0.81641 2.6289 1.8359 4.3555 1.4141 4.8477-1.5977 1.8477-3.6602 3.3008-5.543 4.9062-0.22656-1.2617-1.0195-2.8203-0.55078-3.7305 0.95703-1.8828 2.5898-3.4219 4.6797-6.0234z"/>
  <path d="m472.15 800.88c-2.6523 1.3672-4.4766 2.3164-6.2891 3.2539-0.46875-1.0664-1.6094-2.6641-1.2734-3.0859 1.0195-1.2617 2.4961-2.3516 4.0195-2.8906 0.57812-0.20312 1.7539 1.2852 3.543 2.7227z"/>
  <path d="m643.85 444.11c-1.7773 0.5625-3.6367 1.7773-5.293 1.5234-1.7773-0.26562-3.3359-1.9062-4.9922-2.9531 1.2461-1.1992 2.3398-3.0234 3.8047-3.4219 1.2461-0.33594 2.9531 0.96094 4.4531 1.5234 0.67188 1.1172 1.3438 2.2227 2.0273 3.3281z"/>
  <path d="m385.14 342.65c2.7852-1.2109 4.2461-2.2578 5.7617-2.3398 0.85156-0.035156 2.6758 2.0508 2.5312 2.293-0.80469 1.3672-1.9688 3.2891-3.2031 3.4453-1.168 0.15234-2.5938-1.6211-5.0898-3.3984z"/>
  <path d="m271.51 498.19c-2.4727 1.668-4.0312 3.5039-5.3398 3.3477-1.1523-0.13281-2.9531-2.6289-2.7969-3.8633s2.3164-2.9141 3.7422-3.0586c1.082-0.12109 2.3906 1.8477 4.3945 3.5742z"/>
  <path d="m184.64 603.78c-1.3555 1.7266-2.4102 3.0703-3.4805 4.4141-0.71875-0.82812-2.1836-1.9336-2.0039-2.4258 0.60156-1.6211 1.8008-3.0234 2.7734-4.5117 0.77734 0.72266 1.5469 1.4414 2.7109 2.5234z"/>
  <path d="m491.94 354.36c-0.92578-1.6445-1.9453-3.4336-2.9531-5.2188 0.74219-0.38281 2.0273-1.2109 2.1367-1.0781 1.3906 1.7148 2.6289 3.5625 3.8867 5.375-0.76953 0.21484-1.5352 0.45312-3.0703 0.92188z"/>
  <path d="m823.11 398.81c-2.543 1.1641-3.9727 2.3633-4.6797 2.0273-1.4648-0.69531-2.543-2.207-3.793-3.3828 1.1289-0.625 2.3633-1.8828 3.3477-1.7031 1.4531 0.26172 2.7109 1.5469 5.125 3.0586z"/>
  <path d="m476.4 341.66c-2.9531 2.0156-4.1289 3.4062-4.957 3.2148-0.9375-0.21484-2.1133-1.8477-2.1133-2.8555 0.011719-0.85156 1.5352-2.3164 2.4492-2.3633 1.2148-0.058594 2.4766 0.99609 4.6211 2.0039z"/>
  <path d="m724.39 294.76c-1.0195 1.4023-1.5703 2.9648-2.5312 3.2891-0.96094 0.3125-2.3281-0.625-3.5156-1.0078 0.76953-1.3906 1.3789-2.9414 2.4492-4.043 0.23828-0.26953 2.0625 0.98047 3.5977 1.7617z"/>
  <path d="m714.19 865.98c-2.1953 0-3.7188 0.42188-4.6094-0.15625-0.53906-0.34766-0.32422-2.2812 0.011719-3.3594 0.10938-0.35938 2.0156-0.69531 2.4375-0.3125 0.83984 0.75391 1.1992 2.0156 2.1602 3.8281z"/>
  <path d="m793.48 318.67c-1.4141 1.8125-2.4844 3.168-3.5391 4.5234-0.875-0.92578-2.6055-2.0625-2.4492-2.7344 0.38281-1.6094 1.668-3 2.5938-4.4766 0.94531 0.75391 1.8945 1.5117 3.3945 2.6875z"/>
  <path d="m685.6 409.3c1.0938 1.2969 2.3398 2.125 2.4375 3.0586 0.12109 1.0938-0.78125 2.2812-1.2344 3.4336-1.2227-1.0078-2.6523-1.8711-3.5273-3.1211-0.23438-0.32422 1.2539-1.8477 2.3242-3.3711z"/>
  <path d="m271.14 519.24c1.7383 0.80469 3.4805 1.6094 5.2188 2.4102-0.75781 1.0938-1.5 2.1836-2.2578 3.2773-1.5703-1.2109-3.1445-2.4258-4.7266-3.6484 0.60156-0.67969 1.1875-1.3672 1.7656-2.0391z"/>
  <path d="m758.81 342.47c-0.74219 0.9375-1.5352 1.9219-2.3164 2.8906-0.73047-0.80469-1.4648-1.6094-2.1836-2.3984 0.92578-0.82813 1.8477-1.668 2.7734-2.4961 0.51562 0.57422 1.0195 1.1641 1.7266 2.0039z"/>
  <path d="m817.33 416.63c-1.2227-1.6914-2.4609-3.3828-3.6836-5.0742 1.0664-0.49219 2.1367-0.99609 3.2031-1.4883 0.46875 1.9688 0.94922 3.9375 1.4141 5.9023-0.007813-0.011719-0.93359 0.66016-0.93359 0.66016z"/>
  <path d="m446.73 543.35c-0.58984-1.0938-1.2617-2.1484-1.6211-3.3008-0.058593-0.17969 1.8125-1.332 2.0273-1.1523 0.9375 0.79297 1.5859 1.9336 2.3398 2.9414-0.77734 0.42187-1.5312 0.85156-2.7461 1.5117z"/>
  <path d="m671.22 987.79c-2.0156-3.9102-3.0234-5.0742-3.1562-6.3477-0.13281-1.1758 0.67188-2.4492 1.0664-3.6836 0.96094 0.88672 2.3047 1.6094 2.7734 2.6992 0.41016 0.96094-0.14062 2.3398-0.68359 7.332z"/>
  <path d="m532.73 1019.7c-0.76953-0.34766-1.9922-0.55078-2.1719-1.0938-0.20313-0.61328 0.52734-1.5469 0.83984-2.3398 0.79297 0.35938 1.9805 0.53906 2.2422 1.1289 0.23047 0.54297-0.5625 1.5234-0.91016 2.3047z"/>
  <path d="m810.52 834.3c-0.81641 0.27734-1.8594 0.97266-2.3984 0.69531-0.625-0.3125-0.80469-1.4883-1.1758-2.293 0.82812-0.27734 1.8594-0.96094 2.4375-0.69531 0.59766 0.27734 0.77734 1.4883 1.1367 2.293z"/>
  <path d="m558.52 378.89c-1.5-0.82812-2.9883-1.6562-4.4883-2.4844 0.5625-0.57422 1.1172-1.1641 1.6797-1.7383 0.875 1.4648 1.7656 2.9297 2.6406 4.4023z"/>
  <path d="m442.93 436.29c0.91016-1.2852 1.8359-2.5664 2.7461-3.8633 0.52734 0.51562 1.0547 1.043 1.5859 1.5586-1.2852 0.92578-2.5664 1.8594-3.8398 2.7852z"/>
  <path d="m484.73 433.27c0.5625-0.53906 1.1289-1.0781 1.7031-1.6094 0.46875 0.64844 0.99609 1.2617 1.3438 1.9688 0.070312 0.13281-0.71875 0.96094-0.88672 0.89844-0.76562-0.30078-1.4375-0.81641-2.1602-1.2578z"/>
  <path d="m502.81 440.58c0.78125 0.35938 2.0039 0.53906 2.2305 1.1172 0.21484 0.5625-0.57422 1.5117-0.92578 2.3047-0.78125-0.34766-2.0156-0.53906-2.207-1.0781-0.20312-0.61328 0.56641-1.5508 0.90234-2.3438z"/>
  <path d="m743.44 445.56c-1.7891 1.1172-2.8203 2.2422-3.6836 2.1367-0.74219-0.097656-1.5-1.5586-1.8242-2.5547-0.10938-0.3125 1.2109-1.5859 1.7539-1.5117 1.0156 0.13281 1.9531 0.93359 3.7539 1.9297z"/>
  <path d="m765.8 458.22c0.57422 0.63672 1.1406 1.2734 1.7148 1.9219-0.99609 0.58984-1.9922 1.1758-2.9883 1.7773-0.32422-0.80469-1.043-1.7383-0.83984-2.3633 0.19141-0.625 1.3555-0.90234 2.1133-1.3359z"/>
  <path d="m303.83 467.68c-0.52734 0.5625-1.0664 1.1289-1.5977 1.6914-0.45703-0.63672-0.98438-1.2461-1.3086-1.9453-0.070313-0.14453 0.67188-0.96094 0.82812-0.89844 0.73438 0.28906 1.3945 0.75781 2.0781 1.1523z"/>
  <path d="m392.23 480.83c-0.71875 0.43359-1.4297 0.86328-2.1484 1.2852-0.33594-1.043-0.66016-2.0898-0.99609-3.1328 0.76953-0.19141 1.8477-0.78125 2.2188-0.48047 0.57812 0.44531 0.65234 1.5117 0.92578 2.3281z"/>
  <path d="m497.84 481.48c-0.68359 1.1758-1.1055 1.8828-1.5117 2.5938-0.91016-0.60156-1.9062-1.1172-2.6758-1.8711-0.13281-0.12109 0.80469-1.8594 1.1641-1.8359 1.0078 0.070313 1.9688 0.67969 3.0234 1.1133z"/>
  <path d="m234.98 497.32c-0.35938 0.75781-0.60156 2.0273-1.1055 2.1367-0.73047 0.15625-1.6445-0.51562-2.4844-0.83984 0.37109-0.75781 0.61328-2.0039 1.1523-2.1602 0.68359-0.17969 1.6094 0.52734 2.4375 0.86328z"/>
  <path d="m444.98 531.47c-0.81641 0.27734-1.7773 0.9375-2.4258 0.70703-0.53906-0.17969-0.71875-1.4023-1.0547-2.1602 0.83984-0.27734 1.7773-0.88672 2.4727-0.69531 0.50391 0.14453 0.69531 1.3906 1.0078 2.1484z"/>
  <path d="m885.13 552.79c-1.0938 0.28906-2.1602 0.74219-3.1914 0.70703-0.28906-0.011719-0.94922-1.9922-0.69531-2.2188 0.78125-0.67188 1.9219-0.92578 2.9141-1.3438 0.26562 0.80078 0.53906 1.5938 0.97266 2.8555z"/>
  <path d="m892.97 559.31c0.3125 0.25391 0.61328 0.50391 0.92578 0.75781-0.44531 0.51562-0.875 1.0547-1.3789 1.4883-0.058594 0.046874-0.58984-0.45703-0.91016-0.69531 0.44922-0.51953 0.90625-1.0352 1.3633-1.5508z"/>
  <path d="m891.05 594.11c0.66016-0.51562 1.3086-1.0195 1.9688-1.5352 0.53906 0.92578 1.0781 1.8594 1.6211 2.7852-0.79297 0.32422-1.7031 1.043-2.3281 0.83984-0.58984-0.19531-0.86328-1.3594-1.2617-2.0898z"/>
  <path d="m352.71 647.15c-0.75781 0.43359-1.5117 0.85156-2.2578 1.2734-0.39453-1.0547-0.79297-2.1133-1.1875-3.1797 0.82812-0.16797 1.8828-0.71875 2.4375-0.39453 0.57812 0.34375 0.69531 1.4961 1.0078 2.3008z"/>
  <path d="m316.23 670.18c-1.3906-1.0312-2.7852-2.0508-4.1875-3.0859 0.53906-0.5625 1.0781-1.1289 1.6211-1.6914 1.043 1.3672 2.0898 2.7461 3.1211 4.1172 0.011719 0-0.55469 0.66016-0.55469 0.66016z"/>
  <path d="m299.75 693.96c-0.55078 0.625-1.1055 1.2461-1.6562 1.8711-0.78125-0.85156-1.5586-1.7031-2.3398-2.5547 0.76953-0.40625 1.5977-1.2109 2.2812-1.1055 0.64844 0.097656 1.1523 1.1523 1.7148 1.7891z"/>
  <path d="m845.5 774.86c0.75781 0.33594 1.8828 0.50391 2.1367 1.0664 0.22656 0.51562-0.49219 1.4531-0.80469 2.207-0.75781-0.32422-1.9219-0.49219-2.1367-1.0312-0.21484-0.55078 0.49219-1.4727 0.80469-2.2422z"/>
  <path d="m887.16 809.52c-0.46875 0.70703-0.9375 1.4141-1.4023 2.125-0.94922-0.73047-1.9062-1.4766-2.8555-2.207 0.71875-0.50391 1.4414-1.4141 2.1484-1.4023 0.70703 0.019532 1.4023 0.95703 2.1094 1.4844z"/>
  <path d="m872.32 836.94c1.5234 0.82812 3.0469 1.6562 4.5703 2.4844-0.50391 0.57422-1.0078 1.1523-1.5117 1.7383-0.99609-1.4414-1.9922-2.8672-2.9766-4.3086 0-0.011719-0.082032 0.085937-0.082032 0.085937z"/>
  <path d="m826.27 867.47c0.68359 0.34766 1.7383 0.55078 1.9336 1.0781 0.20312 0.53906-0.43359 1.4023-0.70703 2.1133-0.70703-0.35938-1.7266-0.57422-2.0039-1.1406-0.20703-0.45703 0.48828-1.3438 0.77734-2.0508z"/>
  <path d="m343.99 883.11c-0.45703 0.58984-0.89844 1.1641-1.3555 1.7383-0.50391-0.53906-1.0664-1.043-1.4766-1.6562-0.070312-0.12109 0.52734-0.94922 0.69531-0.91016 0.73438 0.16797 1.4297 0.52734 2.1367 0.82812z"/>
  <path d="m498.76 891.85c0.30078-0.71875 0.58984-1.4414 0.88672-2.1719 0.69531 0.34766 1.7891 0.53906 1.9805 1.0664 0.20312 0.52734-0.49219 1.3906-0.79297 2.1133-0.69531-0.33594-1.3789-0.67188-2.0742-1.0078z"/>
  <path d="m771.07 892.88c0.71875 0.3125 1.8594 0.46875 2.0391 0.98438 0.19141 0.52734-0.51562 1.4023-0.82812 2.125-0.71875-0.32422-1.8242-0.48047-2.0391-0.99609-0.20313-0.51562 0.51953-1.3906 0.82812-2.1133z"/>
  <path d="m545.3 892.95c0.058593 0.74219 0.14453 1.5 0.14453 2.2422 0 0.035156-1.0781 0.14453-1.0781 0.10938-0.14453-0.71875-0.21484-1.4648-0.21484-2.1953-0.015625-0.0625 0.73828-0.10937 1.1484-0.15625z"/>
  <path d="m872.27 577.59c-0.75781 1.7891-1.5234 3.5625-2.2812 5.3516-0.14453-1.7773-0.27734-3.5508-0.42188-5.3281l-0.23828 0.15625h3.0977z"/>
  <path d="m855.29 486.8c-0.42187 0.14453-0.88672 0.46875-1.2344 0.35937-0.32422-0.097656-0.49219-0.66016-0.73047-1.0195 0.63672-0.20312 1.2734-0.39453 1.9062-0.60156 0.023437 0.43359 0.035156 0.83984 0.058593 1.2617z"/>
  <path d="m228.67 596.1c-0.38281 0.70703-0.63672 1.8008-1.1992 2.0156-0.58984 0.21484-1.4883-0.43359-2.2578-0.70703 0.35938-0.70703 0.58984-1.8711 1.1055-2.0273 0.66016-0.19531 1.5586 0.44141 2.3516 0.71875z"/>
  <path d="m424.27 489.46c-1.2344 0.91016-2.4727 1.8242-3.707 2.7344 0.55078-1.5859 1.1055-3.168 1.6562-4.7539 0.66797 0.6875 1.3672 1.3477 2.0508 2.0195z"/>
  <path d="m795.5 338.14c-0.75781-0.26562-1.5-0.52734-2.2578-0.78125 0.37109-0.67188 0.60156-1.7148 1.1406-1.9336 0.53906-0.20312 1.4023 0.42188 2.125 0.68359-0.33594 0.67578-0.67188 1.3594-1.0078 2.0312z"/>
  <path d="m225.01 492.85c-0.69531 0.50391-1.4141 1.4023-2.1016 1.3672-0.66016-0.023438-1.2852-1.0078-1.9219-1.5703 0.69531-0.49219 1.4141-1.3906 2.1016-1.3672 0.66406 0.023438 1.2852 1.0078 1.9219 1.5703z"/>
  <path d="m518.53 339.8c0.3125-0.80469 0.625-1.5977 0.9375-2.3984 0.73047 0.42188 1.8125 0.69531 2.0742 1.3203 0.22656 0.51563-0.50391 1.4531-0.80469 2.1953-0.74219-0.375-1.4727-0.74609-2.207-1.1172z"/>
  <path d="m489.16 340.97c0.57422 0.61328 1.1523 1.2227 1.7148 1.8242-0.74219 0.32422-1.4766 0.74219-2.2578 0.92578-0.25391 0.058594-0.97266-0.75781-0.92578-0.83984 0.40234-0.66406 0.92969-1.2383 1.4688-1.9102z"/>
  <path d="m592.37 344.8c-0.5625 0.52734-1.1172 1.0547-1.6797 1.5859-0.37109-0.70703-0.81641-1.3789-1.043-2.125-0.058593-0.17969 0.78125-0.89844 0.92578-0.82812 0.64453 0.34766 1.1992 0.88672 1.7969 1.3672z"/>
  <path d="m505.54 952.54c0.46875 0.55078 0.9375 1.1172 1.4141 1.668-0.66016 0.37109-1.3086 0.79297-2.0156 1.0547-0.097656 0.035157-0.74219-0.76953-0.66016-0.96094 0.30078-0.63281 0.82031-1.1719 1.2617-1.7617z"/>
  <path d="m269.94 359.62c-0.49219 0.55078-0.98438 1.0938-1.4648 1.6445-0.44531-0.60156-0.97266-1.1758-1.2969-1.8359-0.070313-0.15625 0.63672-0.97266 0.76953-0.91016 0.69531 0.26172 1.332 0.70312 1.9922 1.1016z"/>
  <path d="m615.61 361.12c0.52734-0.50391 1.043-1.0078 1.5586-1.5 0.37109 0.63672 0.82812 1.2344 1.043 1.9219 0.070312 0.22656-0.64844 0.96094-0.69531 0.9375-0.64844-0.40234-1.2461-0.86719-1.9062-1.3594z"/>
  <path d="m245.55 605.12c-0.78125 0.30078-1.6797 0.97266-2.3164 0.78125-0.50391-0.14453-0.68359-1.3555-1.0078-2.0898 0.74219-0.30078 1.668-1.0078 2.1836-0.78125 0.57813 0.25391 0.76953 1.3438 1.1406 2.0898z"/>
  <path d="m238.21 544.74c-0.55078-0.40625-1.1641-0.75781-1.5977-1.2734-0.13281-0.15625 0.21484-1.043 0.40625-1.0664 0.67188-0.070313 1.3555 0.085937 2.0391 0.15625-0.26953 0.72266-0.55859 1.4531-0.84766 2.1836z"/>
  <path d="m208.45 511.62c-0.34766 0.097656-0.75781 0.34766-1.0195 0.23828-0.30078-0.12109-0.46875-0.5625-0.69531-0.86328 0.52734-0.15625 1.0664-0.3125 1.5977-0.46875 0.03125 0.35938 0.078124 0.71875 0.11719 1.0938z"/>
  <path d="m565.87 998.65c0.52734 0.49219 1.043 0.99609 1.5586 1.4883-0.60156 0.40625-1.1641 0.88672-1.8242 1.1875-0.13281 0.058594-0.85156-0.63672-0.79297-0.79297 0.25391-0.66016 0.6875-1.2578 1.0586-1.8828z"/>
  <path d="m283.5 553.09c-0.39453 0.69531-0.64844 1.7266-1.2344 1.9688-0.53906 0.22656-1.4297-0.39453-2.1719-0.63672 0.35938-0.69531 0.58984-1.8008 1.1172-1.9805 0.62109-0.19141 1.5195 0.39453 2.2891 0.64844z"/>
  <path d="m903.2 686.61c0.55078 0.49219 1.1055 0.98438 1.6562 1.4766-0.60156 0.38281-1.1758 0.85156-1.8359 1.1055-0.20313 0.070312-0.94922-0.58984-0.91016-0.68359 0.28516-0.67578 0.70703-1.2773 1.0898-1.8984z"/>
  <path d="m936.65 712.89c0.22656-0.37109 0.45703-0.73047 0.68359-1.0938 0.55078 0.5625 1.1523 1.0938 1.6211 1.7266 0.085937 0.10938-0.43359 0.64844-0.66016 0.99609-0.55469-0.53516-1.0938-1.0742-1.6445-1.6289z"/>
  <path d="m856.82 738.35c0.53906-0.50391 1.0781-0.99609 1.6211-1.4883 0.37109 0.55078 0.81641 1.0781 1.0781 1.6797 0.058593 0.12109-0.63672 0.81641-0.83984 0.76953-0.66016-0.20312-1.2461-0.625-1.8594-0.96094z"/>
  <path d="m835.67 747.55c-0.78125 0.32422-1.5586 0.63672-2.3398 0.96094-0.27734-0.80469-0.94922-1.7773-0.70703-2.3516 0.21484-0.51562 1.5703-0.96094 2.2188-0.76953 0.44531 0.14453 0.5625 1.4062 0.82812 2.1602z"/>
  <path d="m166.85 563.38c1.1406-0.68359 2.293-1.3672 3.4336-2.0508 0.17969 0.44531 0.37109 0.875 0.55078 1.3203-1.3672 0.20312-2.7344 0.40625-4.0938 0.60156 0-0.003906 0.10938 0.12891 0.10938 0.12891z"/>
  <path d="m638.99 796.57c-0.67188 0.44531-1.3555 0.88672-2.0273 1.332-0.43359-1.0547-0.86328-2.1016-1.2969-3.1562 0.81641-0.20312 1.8711-0.81641 2.375-0.50391 0.57813 0.35156 0.66016 1.5156 0.94922 2.3281z"/>
  <path d="m884.66 840.55c-0.55078 0.50391-1.1055 1.0078-1.6562 1.5-0.42187-0.63672-0.92578-1.2227-1.2109-1.9219-0.070313-0.16797 0.69531-0.96094 0.80469-0.89844 0.74219 0.36328 1.3906 0.86719 2.0625 1.3203z"/>
  <path d="m846.93 851.86c-0.51562 0.52734-1.0312 1.0547-1.5352 1.5977-0.39453-0.66016-0.88672-1.2734-1.1289-1.9805-0.085938-0.22656 0.67188-1.0078 0.71875-0.97266 0.69531 0.39453 1.332 0.89844 1.9453 1.3555z"/>
  <path d="m872.3 574.85c1.4297 0.69531 2.8438 1.3906 4.2734 2.0898-1.4297 0.21484-2.8672 0.43359-4.2969 0.64844l0.14453 0.17969c-0.011719-1.0078-0.023437-2.0156-0.035156-3.0234z"/>
  <path d="m603.96 957.74c-0.76953 0.12109-1.5469 0.22656-2.3164 0.34766 0.046875-0.79297 0-1.6094 0.19141-2.3633 0.046874-0.19141 1.1641-0.38281 1.2227-0.26562 0.39844 0.71094 0.625 1.5039 0.90234 2.2812z"/>
  <path d="m807.05 272.21c0.33594 0.023438 0.80469-0.085937 0.96094 0.085938 0.22656 0.25391 0.21484 0.70703 0.3125 1.0781-0.55078-0.035156-1.1172-0.058594-1.668-0.097656 0.13281-0.35938 0.26172-0.71875 0.39453-1.0664z"/>
  <path d="m269.39 521.27c-0.53906-0.99609-1.0781-2.0039-1.6211-3 1.1289 0.32422 2.2578 0.64844 3.3828 0.96094-0.58594 0.67969-1.1719 1.3672-1.7617 2.0391z"/>
  <path d="m646.22 359.36-0.27344-0.83984 0.75391 0.13281z"/>
  <path d="m263.63 599.55c0.15625 0.38281 0.30078 0.76953 0.45703 1.1523-0.58984 0.12109-1.1641 0.23828-1.7539 0.34766 0.085938-0.42188 0.046875-0.92578 0.27734-1.2461 0.15625-0.21484 0.67188-0.17969 1.0195-0.25391z"/>
  <path d="m481.12 380.82c-0.35938 0.15625-0.71875 0.3125-1.0781 0.46875-0.12109-0.57422-0.23828-1.1523-0.35937-1.7148 0.40625 0.070312 0.88672 0.046875 1.1875 0.26562 0.21094 0.15234 0.17578 0.64453 0.25 0.98047z"/>
  <path d="m212.57 397.23 0.9375 0.55469-1.0195 0.38281z"/>
  <path d="m498.14 396.95c0.097657 0.34766 0.20312 0.69531 0.30078 1.0547-0.40625 0.10938-0.81641 0.32422-1.2109 0.28906-0.13281-0.011719-0.20312-0.64844-0.30078-0.99609 0.40625-0.12109 0.8125-0.23047 1.2109-0.34766z"/>
  <path d="m254.46 550.49c-0.35938 0.19141-0.73047 0.55078-1.0664 0.52734-0.32422-0.035156-0.60156-0.48047-0.88672-0.73047 0.64453 0.058594 1.293 0.12891 1.9531 0.20312z"/>
  <path d="m232.38 611.66c-0.3125-0.14453-0.625-0.27734-0.9375-0.42187 0.38281-0.37109 0.78125-0.75781 1.1641-1.1289 0.21484 0.28906 0.63672 0.625 0.58984 0.86328-0.058593 0.26563-0.52734 0.46094-0.81641 0.6875z"/>
  <path d="m673.51 422.27c0.81641 0.19141 1.6445 0.39453 2.4609 0.58984-0.78125-0.25391-1.5469-0.50391-2.3281-0.75781z"/>
  <path d="m791.86 428.89-0.011719 1.1172-1.1406-0.5625z"/>
  <path d="m166.74 563.24c-0.76953 0.51562-1.5469 1.0195-2.3164 1.5352 0.80469-0.46875 1.6211-0.9375 2.4258-1.4023l-0.10938-0.13281z"/>
  <path d="m460.11 443.27 0.98438 0.5625-1.0703 0.42188z"/>
  <path d="m302.93 636.84c-0.34766 0.23828-0.68359 0.46875-1.0312 0.70703-0.27734-0.51562-0.5625-1.043-0.83984-1.5586 0.43359-0.058593 0.92578-0.27734 1.2734-0.13281 0.28516 0.10938 0.40234 0.63672 0.59766 0.98438z"/>
  <path d="m360.66 449.39c0.34766 0.046875 0.83984-0.035157 1.0195 0.16797 0.21484 0.25391 0.17969 0.73047 0.25391 1.1172-0.57422-0.070313-1.1523-0.14453-1.7266-0.22656 0.15234-0.34766 0.30859-0.69922 0.45312-1.0586z"/>
  <path d="m470.41 452.1c-0.12109 0.3125-0.21484 0.85156-0.35938 0.875-0.32422 0.035157-0.68359-0.20312-1.0312-0.32422 0.12109-0.32422 0.22656-0.63672 0.34766-0.96094 0.34766 0.13281 0.69531 0.27734 1.043 0.41016z"/>
  <path d="m263.29 574.44c0.19141 0.32422 0.55078 0.66016 0.53906 0.96094-0.023437 0.3125-0.42188 0.60156-0.64844 0.88672 0.035156-0.61328 0.074218-1.2266 0.10938-1.8477z"/>
  <path d="m334.56 467.02c-0.625 0.17969-0.9375 0.26562-1.2617 0.35938-0.070313-0.27734-0.15625-0.5625-0.22656-0.83984 0.41016 0.13281 0.81641 0.26562 1.4883 0.48047z"/>
  <path d="m462.57 477.71c-0.33594 0.097657-0.67188 0.17969-1.0078 0.27734 0.22656-0.46875 0.45703-0.94922 0.68359-1.4141 0.10938 0.38281 0.21875 0.75391 0.32422 1.1367z"/>
  <path d="m890.66 487.95c-0.28906-0.10937-0.67187-0.25391-1.0547-0.39453 0.40625-0.49219 0.82812-0.97266 1.2344-1.4648 0.26562 0.32422 0.76953 0.67187 0.73047 0.97266-0.023438 0.30859-0.5625 0.57422-0.91016 0.88672z"/>
  <path d="m346.59 489.9-1.1797 0.43359 0.10938-1.0547z"/>
  <path d="m394.4 619.02-0.011719 0.86328-0.88672-0.44141z"/>
  <path d="m469.19 493.57c-0.35938-0.13281-0.73047-0.27734-1.0938-0.40625 0.42188-0.40625 0.83984-0.81641 1.2734-1.2227 0.27734 0.30078 0.53906 0.60156 0.81641 0.89844-0.34766 0.23828-0.67188 0.49219-0.99609 0.73047z"/>
  <path d="m154.57 622.2 0.99609-0.32422-0.12891 0.89062z"/>
  <path d="m154.09 588.05c-0.78125 0.21484-1.1875 0.42188-1.5703 0.37109-0.14453-0.011719-0.20313-0.64844-0.30078-1.0078 0.52344 0.19531 1.0547 0.36328 1.8711 0.63672z"/>
  <path d="m430.25 506.44-0.27344-0.82812 0.75391 0.11719z"/>
  <path d="m257.63 508.34 0.27344 0.92578-0.82812-0.15625z"/>
  <path d="m407.26 507.49 0.40625 1.1055-1.0078-0.10938z"/>
  <path d="m185.29 641.58-0.35938-1.0898 0.99609 0.15625z"/>
  <path d="m189.88 591.24-1.0547-0.63281 1.1523-0.43359z"/>
  <path d="m316.8 669.52c1.1055 0.57422 2.207 1.1523 3.3125 1.7266-0.28906 0.32422-0.78125 0.98437-0.85156 0.9375-1.043-0.61328-2.0273-1.3203-3.0234-2.0039z"/>
  <path d="m793.77 849.25c-0.33594 0.070313-0.82812 0.3125-0.99609 0.17969-0.26562-0.22656-0.33594-0.69531-0.48047-1.0664 0.5625-0.10938 1.1289-0.22656 1.6914-0.33594-0.058594 0.40625-0.14453 0.8125-0.21484 1.2227z"/>
  <path d="m579.93 865.91-0.25391-0.88672 0.78125 0.15625z"/>
  <path d="m798.57 742.8c-0.86328 0.85156-1.7148 1.7148-2.5781 2.5664 0.16797-1.4531 0.33594-2.9023 0.50391-4.3438 0.69531 0.58984 1.3789 1.1875 2.0742 1.7773z"/>
  <path d="m520.99 758.22-1.0664-0.63281 1.1641-0.43359z"/>
  <path d="m247.63 687.64c0.26563 0.32422 0.53906 0.63672 0.80469 0.94922-0.67188 0.32422-1.332 0.71875-2.0391 0.91016-0.16797 0.046875-0.51563-0.58984-0.78125-0.91016 0.67187-0.3125 1.3438-0.625 2.0156-0.94922z"/>
  <path d="m513.73 895.44-0.37109-1.0586 0.94922 0.13281z"/>
  <path d="m680.02 895.98-1.0547 0.35938 0.14453-0.96094z"/>
  <path d="m663.07 899.44 1.0469 0.023438-0.52734 1.0781z"/>
  <path d="m605.64 912.21c-0.19141-0.69531-0.27734-1.043-0.37109-1.3906 0.3125-0.085938 0.625-0.16797 0.9375-0.25391-0.16016 0.45703-0.31641 0.91406-0.56641 1.6445z"/>
  <path d="m744.95 926.14c-0.13281 0.34766-0.26562 0.70703-0.40625 1.0547-0.39453-0.40625-0.78125-0.81641-1.1758-1.2227 0.28906-0.26562 0.57422-0.52734 0.875-0.79297 0.23828 0.32422 0.47656 0.64844 0.70703 0.96094z"/>
  <path d="m696.05 812.84 0.023437-0.99609 1.0078 0.51562z"/>
  <path d="m695.23 819.04 0.375 1.0586-0.98438-0.14453z"/>
  <path d="m387.1 709.82 0.29688 0.94922-0.86328-0.15625z"/>
  <path d="m868.93 226.98c-0.15625 0.35938-0.30078 0.70703-0.45703 1.0664-0.44531-0.43359-0.875-0.86328-1.3203-1.3086 0.33594-0.23828 0.69531-0.71875 0.98438-0.67188 0.3125 0.050782 0.52734 0.58984 0.79297 0.91406z"/>
  <path d="m582.34 1042.9-0.94922 0.33594 0.12109-0.86328z"/>
  <path d="m335.09 813.09-0.35156-0.96094 0.92578 0.09375z"/>
  <path d="m872.4 836.84-0.74219-0.60156 0.66016 0.69922z"/>
  <path d="m750.05 875.15 0.30078 0.88672-0.81641-0.10547z"/>
  <path d="m460.46 367.38-0.55469 0.61328 0.66016-0.49219z"/>
  <path d="m655.73 372.52c0.43359 0.43359 0.875 0.86328 1.3086 1.2852-0.44141-0.41016-0.875-0.83984-1.3086-1.2852z"/>
  <path d="m381.29 666.11-0.30078-0.80469 0.78125 0.09375z"/>
  <path d="m221.43 456.67c-0.15625 0.30078-0.30078 0.60156-0.45703 0.89844 0.17969-0.26562 0.37109-0.52734 0.55078-0.80469 0 0.003906-0.09375-0.09375-0.09375-0.09375z"/>
  <path d="m622.81 473.99c0.37109-0.75781 0.625-2.0156 1.1406-2.1367 0.71875-0.15625 1.6211 0.53906 2.4492 0.875-0.39453 0.76953-0.64844 1.9922-1.2344 2.1953-0.60547 0.20703-1.5508-0.57422-2.3555-0.93359z"/>
 </g>
</svg>
