<?xml version="1.0" encoding="UTF-8"?>
<svg width="1200pt" height="1200pt" version="1.1" viewBox="0 0 1200 1200" xmlns="http://www.w3.org/2000/svg">
 <g>
  <path d="m800.75 390.81c3.5469-5.1992 5.4648-11.773 2.4531-14.055-2.9883-2.2383-9.1602 2.2148-10.199 5.6016-1 3.4531-3.3477 10.309-1.3594 11.547 1.9609 1.1875 6.625 0.51953 9.1055-3.0938z"/>
  <path d="m744.09 578.64c1.2656-5.4922 0.28125-19.801-4.0938-23.441-4.3867-3.6406-24.387 0.34766-19.48 21.375 4.9062 21.027 20.945 13.719 23.574 2.0664z"/>
  <path d="m702.12 583.8c8.7734-7.2148 13.547-11.586 7.2539-20-6.2539-8.4414-22.508-16.586-31.465-11.465-8.9727 5.1328-22.574 10.559-13.762 20.574 8.7617 10 13.238 14.387 21.441 14.414 8.1016 0.023437 12.023 0.25 16.531-3.5234z"/>
  <path d="m702.56 534.51c5.8008-2.2656 15.535-10.734 9.0547-23.801-6.5078-13.039-13.68-8.9219-25.867-7.2148-12.133 1.7188-15.055 14.16-5.7188 22.547 9.332 8.375 16.281 10.906 22.531 8.4688z"/>
  <path d="m706.13 438.95c6.5195 1.4258 17.266-1.293 21.934-9.3086 4.7188-8.0391 13.414-23.227-0.32031-29.801-13.746-6.6016-28.586-10.332-37.012-4.0938-8.3984 6.2148-13.266 4.9609-17.934 16.094-4.625 11.105-3.5469 18.734-9.8125 15.348-6.3086-3.375-16.535-4.2656-24.215-1.2266-7.7461 3.0117-21.227 9.1875-27.309 23.652-6.1211 14.414-4.6016 16.922-1.0781 19.922 3.5195 3-4.4531 4.1328-9.0938 15.238-4.668 11.133-2.4922 10.039-12.012 13.734-9.5859 3.6797-13.027 4.1719-16.734 8.1719-3.6797 4.0117-10.465 19.32-17.934 18.426-7.5078-0.85156-15.559-2.8398-22.691 4.375-7.1211 7.2266-6.5195 19.535-11.32 24.094-4.8125 4.5742-6.8516 0.96094-13.613 7.7734-6.8672 6.7617-4.0273 12.973-8.3203 18.254-4.293 5.2539 0.375 6.3984-2.7734 8.3477-3.1484 1.9219-2.2383 1.0547-6.9883 3.2148-4.7344 2.1602-4.2539 5.5078-6.3867 7.4414-2.1211 1.9336-4.5742-0.66797-7.6523 1.5352-3.1328 2.2266-5.4414 0.76172-7.5195 2.8398-2.0391 2.1055-2.6406 6.4922-3.8125 7.8281-1.1484 1.3867-1.9062 2.2266-4.5078 1.5352-2.6406-0.66797-7.4531-1.0117-9.1875 0.39844-1.7461 1.4414-1.0547 1.9453-6.0117 4.8945-4.9336 2.9062-6.4258 4.1875-10.055 4.5469-3.6914 0.35937-4.7344 3.4805-8.6133 2.375-3.8945-1.0781-3.3594-0.53516-6.9336-1.6914-3.6016-1.1211-5.1875-0.76172-5.1875-0.76172s0.82813-4.5586 7-8.4414c6.1484-3.8281 8.0391-5.1484 10.055-8.8398 2-3.707 6.9453-15.281 12.586-18.453 5.668-3.1992 9.9883-3.2148 15.574-9.9336 5.6133-6.7617 3.9453-13.254 10.746-15.973 6.7188-2.7617 7.375 1.0273 12.961-3.9219 5.5859-4.9609 8.3477-7.2656 9.0664-11.691 0.73438-4.4258-0.23828-7.1328-3.3867-13.359-3.1211-6.293-3.4531-7.707-7.4922-6.8398-4.0664 0.86719-5.7617 0.51953-4.5078-1.1602 1.2656-1.6523 6.9609-10.668 13.852-15.812 6.8672-5.1328 8.0273-6.332 11.039-10.465 2.9727-4.1602 7.8945-8.4258 10.348-9.9609 2.4414-1.5469 8.3594-11.453 12.574-13.254 4.2148-1.8125 14.398-7.5586 21.148-14.453 6.8125-6.9062 8.332-11.895 12.105-13.762 3.7188-1.8672 6.4141-7.0117 11.48-10.266 5.0391-3.2383 9.1484-5.8945 14.094-10.762 5.0117-4.9062 1.8398-3.1055 7.9062-5.4531 6.0781-2.3203 9.8945-5.7188 11.398-7.8398 1.4648-2.1602 3.6016-1.8516 3.1484-0.89453-0.46484 0.96094 1.2266 3.5469-0.76172 5.1719-2.0117 1.6133-2.5078 5.4258-1.4922 8.5469 1.0547 3.1211 5.6523 10.359 13.906 4.6133 8.2656-5.8008 6.1055-11.613 4-14-2.1328-2.3594-6.8945-3.1992-9.293-3.4531-2.4258-0.22656-5.8125-1.1055-5-2.7188 0.82812-1.6016-0.64062-1.5352 1.3203-3.1719 2.0391-1.5859 2.8789-2.1602 4.8281-3.9219 1.9727-1.7852 5.3984-6.1328 10.879-9.4414 5.4922-3.3203 10.828-7.7734 15.52-10.254 4.7188-2.4414 10.762-5.0938 18.895-11.734 8.1602-6.6523 15.879-10 22.039-14.895 6.1484-4.8789 13.039-11.945 21.027-16.387 8.0391-4.4141 16.691-15.746 19.785-16.32 3.0273-0.58594 11.359-4.7461 24.852-12.586 13.453-7.8672 20.426-15.547 30.027-20.348 9.6133-4.7617 20.48-9.8672 23.309-11.039 2.8398-1.1328 6.9062-3.7852 18.641-3.8281 11.773-0.011719 27.961 2.625 35.508-17.641 7.5352-20.293 1.1328-31.895-10.48-35-11.625-3.1211-19.238-3.3984-33.027 1.0781-13.852 4.4805-19.027 10.852-19.266 18.652-0.22656 7.7734-5.7344 18.52-7.4258 26.52-1.6914 7.9727-2.625 7.8008-7.5469 9.6914-4.9609 1.9062-17.254 8.5742-21.441 11.828-4.1328 3.2656-6.1484 2.6523-11.973 4.6523-5.8398 2.0273-14.266 10.508-19.906 14.16-5.5859 3.6133-16.945 9.5352-22.148 11.922-5.1484 2.3477-8.8281 6.1484-15.48 11.559-6.6797 5.4258-11.359 8.1602-15.895 8.6523-4.5586 0.49219-8.7617 1.0938-10.691-0.85156-1.9219-1.9883-8.1328-2.7344-11.227-3.4922-3.0664-0.76172-8.0664-1.3984-10.68-2.0781-2.6523-0.64062-3.0781-0.58594-6.4805-1.4414-3.3867-0.87891-5.8398-1.2656-6.332 0.57422-0.50781 1.8672 0.83984 3.0117 5.5586 2.5078 4.707-0.53516 12.586 0.45312 14.426 0.80078 1.8398 0.33203 7.8008 1.4141 10.828 2.7734 3.0117 1.3594 3.1875 0.58594 4.2148 3.5859 0.98828 2.9883-0.77344 3.9727-2.1719 6.5586-1.4414 2.5859-5.2812 6.1055-7.332 6.1055-2.1211 0-5.332-0.57422-5.8398 0.96094-0.53516 1.5742-2.7188 3.8281-6.1719 6.9883-3.4258 3.1602-5.2266 4-9.7344 7.7734-4.5586 3.7617-5.2656 4.0117-9.668 7.332-4.5078 3.3086-9.7188 7.332-11.879 10.148-2.1055 2.8281-3.2656 3.2812-4.4648-0.12109-1.2266-3.3867-1.3203-6.1875-5.8516-6.6133-4.5195-0.41406-5.8789 0.375-7.1328-1.9883-1.2383-2.3477-4.0117-2.9883-1.4922-8.4258 2.5469-5.3984 0.92188-11.441 2.8125-11.852 1.8672-0.42578 5.5078-1.0938 5.4531-2.4414-0.011719-1.3203-1.2383-3.5352-0.50781-5.8516 0.69141-2.3594 0.66797-3.668 0.98828-8.625 0.33203-4.9727 4.1602-8.4805 1.5469-11.254-2.6133-2.7461 0.13281-2.0781-6.668-4.1055-6.8398-2.0117-10.254 0.39844-16.027-2.625-5.8281-3.0664-9.668-2.9727-13.68-1.8125-3.9336 1.1602-5.0781 2.7852-8.8945 7.5078-3.8008 4.707-10.16 11.254-10.348 15.309-0.16016 4.0391 0.22656 5.6406 0.65234 8.707 0.44141 3.0547 0.85156 7.3086-1.8398 14.398-2.707 7.0938-3.9609 7.8672-3.1719 12.375 0.78516 4.5078 2.3594 5.1719 6.9219 6.9062 4.5859 1.7344 20.426 1.1211 22.48 0.83984 2.0391-0.29297 8.2656-2.7852 9.6797-0.027344 1.4258 2.7734 0.8125 6.8789 2.1211 8.8008 1.293 1.8789 3.0938 2.8398 3.8516 5.2383 0.8125 2.4414 0.53516 3.5195-1.6797 4.7344-2.2148 1.1719-4.9453 3.0547-7.2539 5.7617-2.2539 2.7344-1.7852 5.1602-5.5859 5.5469-3.8281 0.39844-4.1211 5.5195-6.3984 6.2812-2.3086 0.78516-3.6133 2.2812-5.9883 4.1211-2.4258 1.8398-5.8789 3.6523-9.7188 7.1719-3.8516 3.5195-9.4258 10.426-12.227 12.441-2.8398 2.0391-2.6133 1.4414-8.8281 4.9883-6.1992 3.5586-8.8789 6.7734-9.8789 9.1602-1.0273 2.3477-1.9883 5.9062-6.2656 8.3203-4.3086 2.3594-6.625 7.9219-7.5352 9.9883-0.89453 2.0664-4.5352 3.625-8.0547 6.0664-3.5742 2.4414-4.625 4.3867-7.5586 7.6016-3 3.2812-6.6133 8.9727-11.691 13.266-5.0391 4.3203-2.4531 3.7852-10.547 7.4531-8.1328 3.668-10.375 5.9336-16.707 9.375-6.3594 3.4258-6.1992 3.707-12.48 3.5469-6.2656-0.16016-5.1992-1.2148-8.9336-2-3.6406-0.83984-4.5586 0.1875-8.5859-0.73438-3.9727-0.92188-7.4922-2.668-9.7188-3.5352-2.2148-0.86719-2.6133 3.3477-5.5586 4.9727-2.8945 1.5742-7.1875 3.4258-11.922 2.293-4.7188-1.1055-4.0391-1.8008-5.8125-3.1328-1.8008-1.332-3.7188-1.0547-5.8398-3.5586-2.1602-2.4531-3.5859-1.2539-4.7461-2.4922-1.1484-1.2383-0.65234-3.2812-4.0391-3.3984-3.4141-0.10547-3.9219-1.0547-7.4648 2.0547-3.5469 3.0781-3.2148 6.5859-2.332 8.8672 0.90625 2.2266 3.6016 4.2656 2.7617 6.5469-0.87891 2.293-0.70703 5.0547-2.8398 4.1719-2.1055-0.92188-7.5859-4.6797-11.707-5.6797-4.0938-1.0391-7.332 0.027344-11.602 0.82812-4.2656 0.78516-11.066 3.332-14.027 5.9336-3.0273 2.625-6.0117 8.3984-8.0664 13.453-2.0391 5.0547-2.332 8.6797-2.0664 10.641 0.28125 1.9336 1.4805 6.1328 0.80078 9.8125-0.67969 3.668 2.7617 5.1719 5.4805 6.375 2.7461 1.1992 6.7617 1.4258 7.8945 3.8516 1.1484 2.4141 4.4258 1.9453 8 4.3984 3.5078 2.5078 7.2539 1.1875 8.5352 4.375 1.2539 3.1992 5.6914 6.3594 8.1875 4.6016 2.5469-1.7461 8.7734-4 10.121-5.7852 1.3477-1.8008 3.1602-4.4414 5.6797-4.7734 2.5078-0.34766 5.5859-2.7617 6.7188-0.14844 1.1602 2.6016 2.4922 6.3867-1.625 10.934-4.1328 4.5469-2.4805 6.5195-9.1328 8.4531-6.668 1.9219-7.4922 4.625-7.3203 7.1719 0.17188 2.5859 2 4.4805 5.5352 5.6016 3.5469 1.0664 6.8945-0.38672 5.2539 3.1875-1.6914 3.625-6.2539 10.613-9 15.199-2.707 4.5469-8.0781 10.078-10.879 15.625-2.7734 5.5469-4.375 14.32-10.852 18.613-6.5586 4.3203-11.641 9.1992-14.801 16.387-3.1328 7.1992-2.707 12.691-9.0781 18.559-6.293 5.8516-9.7734 6.5469-12.773 9.375-2.9883 2.8008-9.0117 14.945-10.895 23.945-1.9062 8.9883-3.7617 14.227-4.8281 17.945-1.0117 3.707-3.2656 7.6016-6.4258 9.2383-3.1211 1.6406-10.078 3.2148-9.8281 7.5586 0.22656 4.332 2.2539 4.6406-0.23828 11.133-2.4258 6.5078-3.2656 6.2148-7.375 10.973-4.1055 4.7461-3.3594 2.6797-7.707 7.2266-4.3203 4.6016-8.0273 8.0938-7.1602 12.746 0.86719 4.6523 3.0938 4.7344 6.6523 4.8008 3.5859 0.09375 5.0938-4.8516 9-9.1992 3.9883-4.3203 5.8125-6.9609 6.7344-10.078 0.96094-3.1055 2.8125-6.9453 5.4922-10.492 2.6523-3.5742 5.2266-10.879 7.6406-11.625 2.5078-0.74609 10.613 0.50781 16.895-1.3867 6.293-1.8945 11.387-9.3594 7.7188-14.398-3.7188-5.0391-8.0391 0.93359-10.281 0.65234-2.1875-0.29297-3.8125-3.4414-2.5586-4.3984 1.2266-0.94531 8.1992-10.867 13.707-20.828 5.5586-9.8789 19.762-34.535 26.348-42.785 6.5586-8.2812 17.441-21.535 22.867-30.84 5.4258-9.293 7.5469-16.719 11.547-20.691 4-3.9453 12-18.961 13.852-21.199 1.8945-2.2383 11.719-4.2539 13.359-2.6914 1.5859 1.5742 2.5742 0.23828 1.2656 3.3984-1.332 3.1484-7.5078 19.922-11.879 22.922-4.3203 3-5.5469 5.7344-10.078 11.559-4.5586 5.8125-12.348 13.84-14.852 16.973-2.5469 3.1484-10.281 13.172-13.281 19.945-3.0117 6.7852-6.0781 11.785-3.7461 12.668 2.3086 0.86719 10.359-11.012 13.508-13.812 3.1992-2.8672 14.16-14.945 15.215-17.652 0.98828-2.7461 9.9727-15.121 13.055-17.148 3.0781-2.0117 6.5352-5.6914 7.8945-7.2656 1.3867-1.5859 3.1328-4.6133 4.3203-3.3867 1.1602 1.2266 2.9336 3.7461 2.6133 6-0.28125 2.2266 2.9453 6.7188 9.2148 8.8125 6.2383 2.1055 10.52 2.8672 22.266-2.3477 11.801-5.2656 11.121-9.9062 12.387-12.465 1.1719-2.5586 0.1875-8.1719-0.90625-10.387-1.1211-2.2383-1.0117-3.2539 0.67969-3.6914 1.7344-0.44141 4.6797-0.85156 7.0391-2.1602 2.3867-1.3477 9.0781-4.8789 10.961-5.1602 1.9609-0.26562 3.6133-1.4922 8.6914-3.1875 5.1328-1.7188 7.1992-3.8281 9.0273-4.8789 1.8516-1.0273 7.6797-3.2539 7.8516-7.8008 0.14844-4.625-0.30859-7.9336 2.2656-9.2539 2.5742-1.3984 9.5195-11.293 11.465-11.586 1.9609-0.26562 4.4414-4.9727 5.7344-5.7617 1.3086-0.77344 8.4531-1.9883 12.012-3.4805 3.5859-1.5078 8.6016-9.5469 11.094-13.066 2.4414-3.5469 5.4414-3.5352 10.465-5.668 5.1055-2.1055 14.348-9.5742 15.828-4.8008 1.4531 4.7461-1.9062 10.602-1.3086 13.293 0.60156 2.6914 2.1484 8.0391 1.0391 10.16-1.1055 2.1484 2.707 10.746 2.6523 13.121-0.066406 2.3867 5.3203 9.5742 10.586 11.625 5.2539 2.0391 10.012 2.1719 17.199-3.2266 7.1719-5.375 17.668-23.934 13.172-38.812-4.4648-14.828-8.5352-11.281-11.828-13.387-3.2656-2.1328-7.2383-6.3203-11.359-5.9453-4.1055 0.38672-6.3203 3.293-9.0781 1.6797-2.8125-1.6016-3.4922-2.293-2.3086-6.4258 1.2148-4.1484 4.1992-6.7461 5.9609-8.1875 1.8125-1.4531 12.16-12.254 14.773-12.012 2.625 0.23828 4.1484 1.0117 6.1602-1.4648 2.0547-2.4648 0.8125-7.0547 3.5586-8.6406 2.7617-1.5859 11.559-9.5742 16.332-11.012 4.7344-1.4805 14.547-8.0273 17.281-8.6133 2.6797-0.58594 7.1211 0.1875 11.465 0.14844 4.4141-0.027343 14.238 0.78516 18.066-1.3477 3.8945-2.1328 8.7734-6.9883 12.586-8.332 3.7188-1.332 8.6406-5.9609 10.586-6.0547 2-0.078125 8.9062 1.1055 13.148 1.5078 4.2266 0.42578 13.375-2.0664 14.215-4.7734 0.82812-2.7188 2.5352-5.9062 0.61328-7.0391-1.9727-1.1055-5.8398-1.7461-5.5352-3.9883 0.26562-2.1992 0.375-1.6523-1.9453-3.8945-2.293-2.2383-3.0547-1.9609-6.293-2.2812-3.2148-0.33203-6.8125-1.8125-6.5469-5.8125 0.21484-4 3-7.9883 4.5352-7.0117 1.5469 0.97266 6.2383 3.0938 6.8945 0.82812 0.66797-2.293 0.92188-4.4922 3.1992-5.2266 2.2578-0.83203 4.4453 0.39453 6.457 0.82031z"/>
  <path d="m659.84 648.99c3.1719-0.44141 7.9883-4.3203 5.0547-6.9219-2.9609-2.6016-9.8281-5.9062-13.602-3.4648-3.707 2.4922-3.332 8.1875-0.42578 10.375 2.8516 2.1836 7.1211 0.28906 8.9727 0.011719z"/>
  <path d="m645.75 676.75c2.5586-2.1602 3.332-14.613-0.98828-16.16-4.2812-1.5742-4.5742-5.1602-10.254-5.8516-5.6914-0.70703-6.1719 3.4648-9.6406 6.3086-3.4648 2.8398-7.6406 8.1602-5.1875 11.879 2.4297 3.7188 14.992 13.332 26.07 3.8242z"/>
  <path d="m574.52 710.2c3.1719-3.2148 10.387-10.055 6.6406-18.309-3.7188-8.293-7.8125-8.1328-15.574-11.535-7.7734-3.4258-6.9336-3.5352-17.652-3.3203-10.691 0.19922-18.707 2.668-23.625 10.414-4.9219 7.7734-8.332 13.625-2.5352 19.867 5.8125 6.2812 13.48 10.359 19.961 10.719 6.4531 0.39844 13.641 0.87891 19.559-1.2656 5.9336-2.1016 10.016-3.3164 13.227-6.5703z"/>
  <path d="m542.4 732.11c4.8281-3.2812 8.1328-3.2812 6-6.3984-2.1875-3.1484-4.293-5.8398-8.9062-5.1875-4.6406 0.64062-7.5078 0.21484-9.3867 3.4531-1.8789 3.2812 2.2812 8.707 4.7461 9.1992 2.4023 0.51953 5.9883 0.015625 7.5469-1.0664z"/>
  <path d="m534.87 741.12c1.8789-0.10547 2.0391-4.1602 0.54687-3.7188-1.4531 0.41016-3.0938 3.8516-0.54687 3.7188z"/>
  <path d="m517.28 753.24c2.8789-1.1055 6.1211-5.1328 3.2656-5.8398-2.9062-0.625-6.1992-1.0391-7.1992 0.82812-1.0156 1.8789 1.2656 6.0391 3.9336 5.0117z"/>
  <path d="m506.11 750.32c2.8945-0.39844 1-3.5859 0.19922-3.4805-0.85156 0.12109-2.9297 3.8789-0.19922 3.4805z"/>
  <path d="m475.38 763.44c2.7461-0.13281 4.1992-1.8516 3.8008-4.8281-0.41406-2.9336-6.332-5.5469-7.8945-4.4414-1.6016 1.0664-6.2266 4.7188-2.2148 7.3594 4.0664 2.6953 3.9883 2.0547 6.3086 1.9102z"/>
  <path d="m450.33 796.16c3.707-4.8672 8.9609-20.148 8.5078-28.238-0.53516-8.0781 1.8008-8.4141-5.0273-15.812-6.8672-7.3867-11-12.414-18.641-10.441-7.6797 1.9219-16.867 6.8672-24.375 14.359-7.5469 7.5078-10.668 15.922-14.934 21.867-4.3086 5.9727-6.8008 6.7461-17.055 6.9336-10.293 0.14844-19.227 3.7852-22.652 17.348-3.4531 13.574-3.9219 19.227-9.5352 19.359-5.5586 0.17188-5.8398-0.44141-12.254 1.1055-6.4414 1.5352-10.922 6.4805-7.4922 9.4414 3.4258 2.9609 6.9219 0.09375 10.227 0.89453 3.3594 0.82813 14.293 0.80078 11.719 9.9609-2.5586 9.1602 1.9453 7.8672-5.293 11.254-7.2383 3.375-6.7852 5.0273-9.3086 6.8945-2.5195 1.8672-1.3086-0.011719-4.8008-0.38672-3.4805-0.375-8.0781 0.46484-9.8281 4.3984-1.8516 3.8945-6.6523 7.8008-2.0117 10.148 4.6133 2.3477 15.867 1.4141 18.16-1.9219 2.3086-3.332 2.2383-2.4648 3.4258-6.0547 1.2266-3.6133 6.1602-6.6797 9.1602-7.0938 2.9062-0.41406 11.746-1.4414 16.227-4.6797 4.4922-3.1875 13.227-2.2656 22.332-6.1328 9.1328-3.8516 22.281-17.078 26.812-28.906 4.5859-11.801 6.9883-14.293 12.039-15 5.0547-0.70703 12.441-1.7344 15.254-3 2.7852-1.2695 6.4766-2.4453 9.3438-6.2969z"/>
  <path d="m361.38 897.75c2.1055-9.5859 14.465-19.895 14.934-22.961 0.44141-3.0391-5.2148-5.1992-14.734-2.9727s-13.492 7.5742-18.535 12.148c-5 4.5586-8.8008 13.453-4.7461 17.055 4.1211 3.5859 12.895 8.9062 17.762 7.625 4.8906-1.3086 4.7734-8.4258 5.3203-10.895z"/>
  <path d="m320.68 988.99c7.8008-4.4648 13.254-15.574 13.762-20.414 0.54688-4.8516-0.74609-11.828-4.8281-13.027-4.0391-1.2148-14.227 4.668-22.348 8.2266-8.1328 3.5078-13.188 3.6133-16.535 13.625-3.375 10.012-4.5078 20.895 1.2383 23.668 5.7852 2.7617 8.0547 10.762 13.746 8.7734 5.668-1.9727 11.828-9.1211 12.535-12.48 0.72266-3.3711 1.043-7.5742 2.4297-8.3711z"/>
  <path d="m306.05 1037.5c3.707-4.9609 4.1484-12.773 5.6016-15.094 1.4648-2.2812 0.22656-4.7852-0.82812-5.8398-1.0273-1.0391-5.3867-2.5195-5.1719 1.3086 0.25391 3.8789 0.10547 5.0547-1.5586 8.0117-1.6797 2.8945-3 3.9727-6.625 7.7734-3.6133 3.7734-2.1875 11.934-4.7617 17.039-2.5469 5.1211-3.6523 7.6797-3.1602 11.172 0.50781 3.4922-0.16016 7.1719 3.2148 4.0117 3.4805-3.1992 7.4648-8.5195 8.0547-12.773 0.60156-4.2383 2.2812-7.1602 2.625-8.9883 0.28906-1.8203 1.8867-5.6055 2.6094-6.6211z"/>
  <path d="m281.19 1093.1c0.53516-2.0391 5.0391-4.2812 4.6523-6.9336-0.34766-2.6133-2.7734-4.9453-2.7734-4.9453s-3.8789 4.1211-5.9453 6.4805c-1.9883 2.3867-3.4531 4.9609-1.6797 6.8008 1.707 1.8242 5.1172 0.78516 5.7461-1.4023z"/>
  <path d="m237.05 1158.3c4.4258-3.9336 4.8672-5.7461 5.1055-8.1602 0.23828-2.4258-3.9453-4.8125-6.8516-2.0273-2.8789 2.8008-1.0664 4.9336-3.9336 7.7344-2.9453 2.7852-2.5078 7.7852-0.17188 7.4531 2.3711-0.33203 5.0508-4.2812 5.8516-5z"/>
  <path d="m523.45 819.11c1.4258-7.5352-18.215-9.0273-18.215-9.0273s-17.465 6.8672-17.734 12.762c-0.28125 5.8672 2.5586 15.375 9.5742 16.266 7.0781 0.90625 10.188 2.3984 16.238-2.4258 5.9766-4.7852 9.6836-15.133 10.137-17.574z"/>
  <path d="m526.8 828.25c2.9727-3.0273 17.492-0.45312 14.559 3.6406-2.8945 4.1211-9.4258 4.9727-13.199 4.6914-3.7461-0.28125-9.0117-1.7461-7.3594-3.5352 1.5977-1.8242 3.8672-2.6523 6-4.7969z"/>
  <path d="m486.79 1045.6c8.3594-11.105-8.6406-19.039-11.719-19.785s-15.188 2.1602-15.707 11.148c-0.48047 9-1.0273 22.188 8.5586 22.613 9.5898 0.4375 15.855-9.9883 18.867-13.977z"/>
  <path d="m491.15 1084.9c4.7617-1.4922 5.1992-9.6797 1.4805-10.359-3.6133-0.65234-6.3867 0.90625-6.3984 5.0781-0.015625 4.1758 1.5039 6.3477 4.918 5.2812z"/>
  <path d="m538.05 923.45c11.387-0.49219 7.8516-11.852 3.2539-14.773-4.5742-2.9219-11.359-0.17188-13.188 3.625-1.8125 3.8555 3.9727 11.363 9.9336 11.148z"/>
  <path d="m464.29 950.54c2.7344-0.38672 3.1484-2.6914 4.1602-3.2812 0.94531-0.57422-0.8125-1.5078-3.293-2.1992-2.5078-0.70703-4.9219-4.2266-6.707-2.9453-1.7344 1.3086-0.09375 4.4805 1.0547 6.3984 1.1836 1.9336 4.7852 2.0273 4.7852 2.0273z"/>
  <path d="m399.49 930.36c2.3984-0.92188 2.4258-3.6523 2.4258-3.6523s-0.97266-0.86719-4.2539-1.0117c-3.3203-0.12109-6.3867 0.30859-3.6797 2.6016 2.707 2.3047 4.2422 2.5312 5.5078 2.0625z"/>
  <path d="m382.15 966.01c0.65234-0.85156 0.46484-2.0117 0.625-3.2266 0.12109-1.1992-0.41406-3.9883-1.332-3.0664-0.92188 0.85156-2.9727 2.0391-2.9219 3.5469 0.078125 1.4531-1.1211 3.7188 0.42578 4.0938 1.5469 0.38672 2.4961-0.35938 3.2031-1.3477z"/>
  <path d="m373.69 1008.3c0.48047-2.375 0.011719-5.332 0.011719-5.332s-4.3086 0.30859-5.5469 1.9609c-1.2539 1.668-0.49219 4.8398 0.82812 4.8008 1.3242-0.042968 4.5078-0.027343 4.707-1.4297z"/>
  <path d="m325.85 732.73c5.1719-4.6406 8.2148-7.293 9.2383-11.602 1.0273-4.3086 3.7344-6.1992 1.625-7.375-2.0781-1.1992-7.4922 0-11.785 4.0391-4.332 4.0547-5.625 6.6133-7.668 10.012-2.0547 3.4141-5.7188 1.707-5.4531 6.7461 0.28125 5.0117-0.73438 7.3867 2.4531 6.7734 3.1875-0.60156 6.9609-1.293 8.375-4 1.418-2.7148 1.2305-2.8477 3.2148-4.5938z"/>
  <path d="m293.13 805.68c4.1484-3.0781 6.8125-8.5586 5.0664-11.309-1.7188-2.7344-3.0938-1.1875-5.9219-2.1328-2.8516-0.94531-4.9883-1.5195-9.7617 1.5352-4.7734 3.0781-6.707 10.48-3.625 12.121 3.0547 1.6641 9.5234 3.2773 14.242-0.21484z"/>
  <path d="m271.39 831.97c4.3984-2.3203 7.2539-3.3867 6.9883-7.3867-0.26562-3.9727-0.039062-5.6406-4.6406-5.3086-4.5742 0.35938-5.4258 0.48047-9.3477 2.2266s-6.5742 4.0781-5.2383 8.4805c1.3984 4.4141 7.25 4.6406 12.238 1.9883z"/>
  <path d="m232.24 854.2c3.0938-2.9062 8.6016-4.668 8.7734-7.3477 0.22656-2.707-0.85156-8.3594-5.6133-8.1328-4.6914 0.19922-10.172-1.2383-10.852 4.1992-0.70703 5.4648 0.48047 6.6406-2.7734 7.8398-3.2383 1.2266-2.0938 4.3203-0.066407 4.9336 2.0273 0.57422 6.9727 1.8281 10.531-1.4922z"/>
  <path d="m235.2 876.12c4.8398-6.6523 12.492-18.027 11.785-19.691-0.67969-1.707-0.19922-4.7344-4.1602-1.0547-3.9453 3.6797-4.5742 6.7344-5.5586 6.1484-0.94531-0.61328-2.5586 0.65234-3.9883-0.039063-1.4648-0.69141-2.2266-2.0781-5.2539-1.0547-2.9727 1-7.3594 0.42578-8.1875 5.1719-0.80078 4.7344 1.3203 11.309 0.48047 12.895-0.78516 1.6016 0.80078 1.375-3.8672 2.0273-4.6523 0.65234-8.8789 3.7734-10.094 6.6523-1.2539 2.8398-0.61328 6.1875-2.293 10.148-1.668 3.9727-2.7188 4.9883-2.4531 6.8945 0.25391 1.9062 3.0781 5.9727 3.0391 8.8125-0.054688 2.8125-2.668 4.5352-0.027344 6.1211 2.6016 1.5469 7.5859 3.2383 8.7461 0.82812 1.1484-2.375 1.5469-5.8945 3.2383-6.5742 1.668-0.66797 11.359-4.8672 11.812-8.0547 0.46484-3.1992-3.7617-6.7617-1.7461-11.387 2.0547-4.5859 2.3477-4.4648 3.7188-6.1602 1.3867-1.6914 3.1328-5.1992 3.1602-6.1211 0.0625-0.89844 1.6484-5.5625 1.6484-5.5625z"/>
  <path d="m195.59 902.43c2.8008-1.5586 4.9219-3.9727 4.4414-7.3477-0.48047-3.3594-2.0781-5.0664-4.2656-6.0938-2.2266-1.0273-8.4414-0.76172-11.266 2.4648-2.8398 3.2539-4.4648 4.2266-3.1211 8.5078 1.3477 4.293 4.2383 5.8008 6.1328 5.5195 1.9062-0.26172 6.9453-2.4492 8.0781-3.0508z"/>
  <path d="m190.15 961.09c1.8281-5.375 2.4258-8.2266 6.1719-10.238 3.707-2.0117 4.5352-2.5859 5.3594-5.2539 0.8125-2.6406 0.82812-4.7344-1.8125-6.293-2.6133-1.5859-5.1875-0.86719-11.426 2.5078-6.1719 3.3867-11.133 7.3594-13.414 11.293-2.3086 3.8945-10.398 5.625-11.668 9.2383-1.2656 3.5859 0.054687 9.5195 4.6523 10.934 4.707 1.4258 3.8281 0.51953 11.84-1.8125 8.043-2.2969 9.8672-9.1211 10.297-10.375z"/>
  <path d="m159.32 1007.3c3.293-3.1484 10.359-5.6406 11.906-10.48 1.5352-4.8125 2.6797-9.6016 1.0938-10.121-1.5586-0.53516-0.97266 3.5586-5.707 5.8672-4.7734 2.3086-5.1484 2.9336-5.9453 0.25391-0.82812-2.707-5.3477-1.0547-8.3477 1.0273-2.9453 2.0664-4.7617 4.2383-5.7188 6.9219-1 2.668-3.1328 0.86719-3.6406 4.8281-0.45313 3.9336 5.5859 3.3867 9.2812 3.5859 3.7852 0.21094 5.2109-0.14844 7.0781-1.8828z"/>
  <path d="m139.62 943.81c2.6797-1.4922 3.4922-1.5352 4.1328-5.332 0.66797-3.8281 0.375-4.6797-2.8281-5.4258-3.2148-0.71875-7.0117-1.2266-9.9219 1.3984-2.9062 2.668-5.668 4.2539-4.6406 7.3594 1.0273 3.1328 2.2656 3.5586 4.7344 4.1055 2.5117 0.53516 6.0195-0.70312 8.5234-2.1055z"/>
  <path d="m132.95 927.17c4.7461-2.3086 5.6797-4.0547 5.9609-6.3477 0.28125-2.2383 0.97266-3.3867-2.7734-5.6914-3.7344-2.3203-2.0781-5.375-5.5742-3.8281-3.4922 1.5078-4.2812 5.668-6.4141 8.3477-2.1484 2.707-1.8281 0.83984-3.0273 3.8398-1.2383 3.0117 1.1211 4.7617 5.1602 5.0781 4.082 0.32422 6.668-1.3984 6.668-1.3984z"/>
  <path d="m146.01 893.33c1.4414-0.30859 1.6797-0.83984 3.2383-1.3594 1.5586-0.51953 3.7617-1.8789 3.7188-3.2266-0.066406-1.3594 0.21484-3.8945-4.1484-2.8281-4.2812 1.0547-5.6406 0.94531-6.9883 1.8945-1.375 0.93359-2.1992 1.4805-0.94531 2.8008 1.2188 1.332 2.9922 3.1602 5.125 2.7188z"/>
  <path d="m243.88 926.11c1.4805-1.668 5.5586-2.8789 7.6133-7.1992 2.0547-4.293 1.3984-5.8516-2.7188-5.707-4.1875 0.16016-7.6523-3.5195-11.172-2.0117-3.5195 1.5469-6.4805 4.668-7.3086 7.4531-0.8125 2.7852 1.6016 7.0664 3.3867 9.0664 1.8008 1.9727 8.5586 0.29297 10.199-1.6016z"/>
  <path d="m262.92 894.38c4.7188-0.17188 10.375-1.4648 14.012-3 3.6914-1.5742 7.1992 0.30859 8.4805 1.1719 1.3477 0.85156 9.1484 4.375 10.281 3.1602 1.1719-1.2266 4.8398 1.4258 5.0664-0.10547 0.23828-1.5469 0.80078-2.668-0.76172-4.2148-1.5469-1.5859-3.4258-1.1719-3.2539-3.0938 0.17188-1.9727 3.6914-3.2266 2.9062-5.9336-0.83984-2.707-2.375-5.332-5.8281-5.1602-3.3984 0.1875-3.5469-2-7.4648-0.41406-3.9453 1.6133-4.9336 4.2539-7.2656 3.3984-2.3867-0.87891-1.7461-1.8516-3.707-1.6914-1.8672 0.10547-4.2266 2.5195-5.9336 3.0547s-3.2148 1.4922-4.2656 0.30859c-1.0664-1.1992-1.8789 1.3086-6.5195 0.30859-4.5859-0.98828-6.2148-0.90625-9.5469 0.93359-3.3086 1.7734-7.5078 3.7188-5.9219 6.4648 1.5586 2.7461 0.73438 6.4531 6.3203 5.668 5.5352-0.77734 10.602-0.76562 13.402-0.85547z"/>
  <path d="m295.07 869.91c2.0547-1.1484 3.3984-2 3.6016-2.8789 0.14844-0.93359-1.8516-3.6406-3.707-4.1211-1.8398-0.48047-5.375 1.0664-5.8281 3.0547-0.45312 2-1.1055 3.8789 0.73438 4.1992 1.8398 0.35938 4.0938 0.34766 5.1992-0.25391z"/>
  <path d="m202.21 858.89c1.5195-0.67969 2.0938-1.0547 2.4414-2.7461 0.375-1.707-1.332-2.0391-3.3086-2.3594-1.9609-0.30859-4.4414 1.0781-4.3594 2.8398 0.10547 1.7852 4.2773 2.6797 5.2266 2.2656z"/>
  <path d="m174.88 868.69c3.293-0.625 5.668-0.94531 7.5352-2.5352 1.8281-1.625-0.69141-3.7852-0.69141-3.7852s-9.8398-3.2539-12.215-3.0547c-2.3594 0.17188-4.4141 2.2539-5.5586 2.707-1.1328 0.48047-3.9062-3.293-5.8281-4.2266-1.9219-0.90625-8.5859-3.5586-13.039-3.8281-4.5195-0.23828-9.8008-0.83984-18.16 3.1602-8.3984 4.0273-11.801 10.332-9.4805 14.32 2.3594 3.9727 3.6523 5.8516 10.281 6.4258 6.625 0.54688 11.133 2.8945 17.973-0.61328 6.7734-3.4648 5.7852-2.1328 11.375-5.9219 5.5586-3.7617 7.8672-5.4414 9.2812-4.8672 1.4141 0.53516 2.3984 2.4648 3.4648 2.4648 1.0508 0.007812 5.0625-0.24609 5.0625-0.24609z"/>
  <path d="m196.91 832.68c4.4414-2.0547 9.9883-9.2812 9.7188-11.199-0.28125-1.8945-3.8945-5.2812-6.293-6.707-2.4648-1.4414-9.7188-2.3477-11.973-0.23828-2.2266 2.1211-2.4648 5.5586-4.2383 8.8008-1.8008 3.2383-2.8398 6.3594-1.2266 7.3203 1.6406 0.92969 7.9453 4.8086 14.012 2.0234z"/>
  <path d="m150.39 793.52c2.7734-3.6797 8.6914-14.348 9.3203-22.773 0.60156-8.4141 6.5195-16.973-1.625-15.84-8.1719 1.1484-10.574 5.6523-14.691 1.4648-4.1875-4.1602-16.895-5.3594-16.895-5.3594s-8-1.8516-13.934 10.922c-5.9453 12.734-4.4648 31.602-2.1992 34.852 2.2383 3.2539 8.2383 7.7617 16.988 6.5195 8.7812-1.2109 21.555-7.7695 23.035-9.7852z"/>
  <path d="m241.05 759.28c4.2539-14.879-2.4922-9.1875 3.1992-33.801 5.6406-24.625 5.5352-33.746 5.5352-33.746s-0.41406-11.426 1.6406-13.719c2.0547-2.2656 4.6133-1.0391 9.8672-6.1484 5.2383-5.1211 8.1992-3.5742 11.586-10.785 3.3203-7.1992-5.5352-10.746-4.6797-16.027 0.82812-5.2656 8.9062-7.2148 9.9453-11.32 0.98828-4.1211 4.9336-7.0391 8.1484-12.641 3.1055-5.6133 2.3984-5.1328 3.6133-10.453 1.2539-5.3477 4.9453-7.0391 6.0781-10.398 1.1328-3.332 1.6016-11.348 1.2266-14.078-0.38672-2.707 0.82812-8.0391-1.9883-8.4258-2.8672-0.42578-8.1719-1.6406-11.055 3.5352-2.7852 5.1602-13.465 2.707-15.945 2.2383-2.4414-0.45312-6.4141-0.67969-9.4414 3.332-2.9727 4-6.0781 4.8398-6.0781 4.8398s-5.8398 9.1328-6.6133 6.4648c-0.77344-2.668-1.8125-7.2656-0.82812-8.6133 1.0117-1.3086 3.375-4.4258 4.9336-7.0391 1.668-2.6133 4.5078-7.7734 1.0391-6.9062-3.4531 0.87891-8.3086 8.707-9.7188 10.105-1.3594 1.3984-4.0781 1.7852-7.1055 5.7734-3 3.9883-13.359 17.773-15.281 21.238-1.9219 3.4258-4.3984 5.3594-6.1055 4.4258-1.7461-0.96094-4.332 0.22656-6.9609 1.3867-2.6133 1.1484-4.8945 1.9062-7.0547 0.58594-2.1602-1.2812-6.7852-0.22656-8.4258-0.76172-1.6797-0.55859-7.0117-1.8125-9.7617-1.4141-2.7188 0.38672-6.3477 0.09375-6.3477 0.09375s-0.58594 0.46484 0.54688 1.0781c1.1328 0.58594 4.2383 0.42578 6.3594 0.57422 2.0938 0.17188 6.5586 1.0117 7.6797 1.6016 1.1211 0.60156 2.9609 0.93359 4.6797 0.54688s5.8789 0.51953 5.8789 0.51953 3.6406-0.25391 4.7344-0.078125c1.0547 0.13281 2.7852-0.55859 4.6406-0.078125 1.8398 0.48047 4.1328-0.13281 3.5742 1.293-0.50781 1.4258-2.6016 3.3477-1.9727 4.9062 0.66797 1.5469 0.98828 3.7188 0.98828 3.7188s-0.77344 3.9727 0.51953 4.8398c1.3203 0.85156 2.5078-0.039062 2.5586 2.3203 0.039063 2.3867 1.1602 4 1.1328 5.0547 0.011719 1.0273-0.011719 2.8281-1.332 3.0273-1.3203 0.19922-3.8516 0.078125-6.707-0.09375-2.8516-0.1875-7.1484 2.332-6.9727 3.5078 0.1875 1.1875-1.3867 1.6797-1.3867 1.6797s-4.9727 2.6406-5.4648 4.3594c-0.51953 1.6914-1.9219 3.5352-0.30859 4.0664 1.5586 0.51953 3.3867 0.82812 5.5742-0.49219 2.1992-1.3594 5.4922-1.2148 5.4922-1.2148s1.3867 3.5195 0.74609 4.1992c-0.625 0.70703-1.1484 2.5352-3.8125 2.7617-2.6133 0.23828-5.5859 0.34766-6.7344 0.82812-1.1328 0.45312-2.3086 1.668-2.9062 2.6523-0.60156 0.97266-1.8945 0.12109-2.3867-0.41406-0.53516-0.51953 0.86719-2.0391 0.98828-3.2539 0.13281-1.2148-1.7734-3.1719-1.8945-3.9062-0.10547-0.73438 0.61328-4.2383-1.4648-4.2539-2.1055 0-2.9062-0.19922-4.6914-1.4258-1.8125-1.2383-6.5742-0.23828-9.9062 1.3984-3.3594 1.6797-8.1328 3.5469-7.1602 7.4258 0.97266 3.8945 2.0781 6.3867 1.6133 7.3594-0.44141 0.97266-0.97266 2.3867-0.97266 2.3867s0.17188 4.5586 2.1602 4.8789c1.9727 0.32031 3.7461 0.066406 6.2539-1.1719 2.5078-1.2383 4.0547-3.9883 6.4805-3.7344 2.4141 0.26562 4.5469 0.70703 6.2266-0.12109 1.6914-0.85156 2.5078-2.4648 4.1484-1.3477 1.6133 1.1055 1.1875 3.2539-0.16016 4.332-1.332 1.0781-4.5469 3.625-4.5469 3.625s-2.2148 2.2539-6.2656 2.0781c-4.0547-0.17188-5.7344 0.50781-5.9883 1.5859-0.32031 1.0938 0.30859 3.3867-1.0391 5.5078-1.3867 2.1211-2.3984 5.2812-5.6523 6.332-3.2812 1.0391-4.5352 2.8516-6 1.8516-1.4531-0.98828-3.9453-0.45312-4.8672 0.25391-0.94531 0.73438 1.8281 6.4531 2.0547 8.1992 0.26563 1.7617 0.87891 3.293-1.2148 5.375-2.0781 2.0938-3.1719-0.58594-4.5469 3.4531-1.3867 4.0781-2.6406 5.4531-3.6523 4.8398-0.96094-0.57422-2.4805 2.4648-4.3477 2.7188-1.9219 0.28125-2.9453 2.6406-3.3867 4.6523-0.46484 2.0117-1.5195 3.0391 0.625 4.375 2.1055 1.3203 8.4531 2.9883 9.8008 5.293 1.3984 2.3477 1.707 1.3984 2.5742 4.2539 0.83984 2.8672 3.0938 7.1875 4.3867 8.0117 1.293 0.86719 4.6914 4.7188 5.1992 6.293 0.51953 1.5469 1.9883 2.3867 2.9727 3 1 0.60156 3.668 0.8125 3.4258 3.0938-0.26562 2.2812-4.0273 5.332-2.8008 7.6914 1.2539 2.375 7.7461 4.1211 8.6133 4 0.87891-0.12109 6.6016 0.41406 8.0664 1.2539 1.4648 0.82812 5.668 2.3203 10.105 1.8398 4.3594-0.46484 7.5742 0.86719 10.281 0.92188 2.668 0.078125 4.7188 2.332 4.2383 4.0117-0.48047 1.7344 0.34766 3.5586-2.3867 4.0664-2.7617 0.54688-2.668-0.96094-5.1602 0.41406-2.4922 1.4141-4.4531 3.3203-3.375 4.6406 1.0938 1.3594 10.281 0.054687 10.348-0.39844 0.09375-0.45312 0.90625-1.9062 2.7852-2.4648 1.8945-0.55859 4.707-0.35938 6.7852-1.3984 2.1211-1.0547 2.7344-1.8789 4.668-4.0781 1.9336-2.2266 4.6914-4.8281 7.9062-7.2383 3.2148-2.375 7.1602-6.3594 8.5195-9.2383 1.375-2.9688 1.7109-6.2891 1.7109-6.2891z"/>
  <path d="m168.49 618.08c0.85156-0.12109 0.19922-1.7852-1.6016-3.1875-1.8398-1.375-4.7734-3.0547-5.6914-2.1719-0.90625 0.87891-2.293 1.8008-0.09375 4.7734 2.2266 2.9727 2.5742 3.3477 3.9062 3.1602 1.3086-0.16016 2.2031-2.3984 3.4805-2.5742z"/>
  <path d="m131.36 641.67c3.9609-1.1875 6.1328-9.0664 6.1328-9.0664s-0.51953-9.1602-4.7617-8.707c-4.2812 0.44141-9.7734 4.6523-13.387 8.5742-3.6133 3.9609-2.1211 9.2539 1.8398 10.039 3.9883 0.77344 8.2969-0.29297 10.176-0.83984z"/>
  <path d="m110.73 605.41c0.82812-1.4805 5.4648-3.4531 3.7617-5.0117-1.6914-1.5586-4.0273-2.2539-8.2656-1.6523-4.2266 0.58594-7.6016 3.293-4.9336 5.1602 2.6406 1.8516 6.3086 3.5859 7.7188 3.0781 1.4492-0.50781 1.7188-1.5742 1.7188-1.5742z"/>
  <path d="m54.238 636.46c4.2812-3.4922 6.9062-5.8672 2.2148-10.293-4.6133-4.4258-4.1328-7.3086-9.2812-4.4922-5.0664 2.8008-10.094 8.4141-12.586 11.879-2.4531 3.4922-0.97266 6.8516 3.625 7.5195 4.5352 0.70703 11.227 0.51953 12.668-0.55859 1.5195-1.1211 2.668-3.5078 3.3594-4.0547z"/>
  <path d="m85.348 652.45c-2.5078-1.3867-4.1875-2.375-5.8281-2.1484-1.6016 0.23828-1.9336 2.1992-1.0938 2.6797 0.82812 0.46484 5.1484 1.4922 6.3203 1.5078 1.1875-0.011719 1.2812-1.6797 0.60156-2.0391z"/>
  <path d="m152.08 683.25c2.1875-0.58594 4.0938-0.71875 4.1992-2.1055 0.10547-1.3477-0.32031-2.3086-2.6133-1.5469-2.293 0.76172-5.4414 0.33203-5.0547 2.0391 0.37891 1.7578 2.3242 1.9336 3.4688 1.6133z"/>
  <path d="m142.56 687.27c0.80078-0.23828 3.6406-1.4141 2.5859-2.5742-1.0781-1.1992-1.1602-0.89453-3.3086-0.29297-2.1328 0.60156-2.5078 3.3203-1.3086 3.3086 1.1914-0.015625 1.0078-0.13281 2.0312-0.44141z"/>
  <path d="m131.16 692.03c1.0781-0.92188 1.6914-1.7461 0.78516-1.9062-0.92187-0.17188-2.0273 0.42578-2.0781 1.1992-0.054688 0.71875 1.293 0.70703 1.293 0.70703z"/>
  <path d="m112.67 698.04c1.375-0.44141 3.0117-1.7461 1.2383-1.8008-1.8281-0.039062-3.7852-0.078125-3.4531 1.0781 0.30859 1.1641 1.3477 1.0156 2.2148 0.72266z"/>
  <path d="m103.23 702.05c1.2148 0.078124 2.6523-1.2656 2.375-2.2539-0.29297-1.0117-2.4922-0.69141-3.5859 0.039063-1.0547 0.74609 0.46484 2.1719 1.2109 2.2148z"/>
  <path d="m95.613 704.03c1.4414 0.25391 2.1211-1.9453 0.77344-1.9219-1.3477 0.066406-1.2148 1.8555-0.77344 1.9219z"/>
  <path d="m91.973 705.6c0.8125-0.55859 0.22656-1.5469 0.22656-1.5469s-1.6797 1.7344-0.96094 1.6523l0.73438-0.10547z"/>
  <path d="m84.332 708.45c1.1875-1.0391 0.21484-1.668-0.64062-1.2383-0.8125 0.38672-3.5469 1.2266-2.8398 1.8789 0.67969 0.64062 1.707 0.375 2.375 0.10547 0.74609-0.23828 1.1055-0.74609 1.1055-0.74609z"/>
  <path d="m49.812 722.27c1.3867-0.51953 1.6016-1.1328 1-1.3477-0.65234-0.22656-1.7617 1.293-1.7617 1.293z"/>
  <path d="m1108.3 233c9.375-4.2812 15.547-12.32 16.586-17.238 1.1328-4.9336 2.3984-12.852-4.1875-17.281-6.6016-4.4414-30.266-3.4648-36.945 4.0273-6.6797 7.5078-4.9727 11.426-10.055 13.348-5.0781 1.9062-16.094-0.12109-21.16 5.9609-5.1484 6.0938-10.254 16.309-6.4922 21.746 3.7344 5.4258 16.16 9.0391 22.281 5.7852 6.0781-3.2383 8.2383-13.066 13.934-15.078 5.707-1.9883 16.52 3.0391 26.039-1.2695z"/>
  <path d="m1031.6 254.99c3.293-1.8125 7.7734-6.1602 6.8125-8.5586-0.93359-2.3984-2.8516-5.3984-7.8008-5.7461-4.9883-0.32031-5.1211-0.30859-9.3477 2.3594-4.2539 2.707-4.3203 4.1875-6.7461 7.2266-2.4141 3-2.4922 7.625 1.2656 7.6914 3.7227 0.09375 10.672-0.1875 15.816-2.9727z"/>
  <path d="m1003.8 265.01c4.6016 1.8789 11.266 6.8945 1.5352 21.52-9.6914 14.613-10.945 11.961-11.988 14.055-1.0547 2.0664-0.82812 6.8008-1.625 9.7734-0.78516 2.9219-1.3086 3.3086-4.375 4.625-3.1055 1.3086-6.2266-0.76172-9.4414-2.5586-3.2539-1.7734-6.3594-3.6914-4.1719-9.3594 2.1875-5.6797 0.25391-4.5078 0.57422-6.6523 0.30859-2.1211-0.28125-7.2383 2.9062-9.9336 4.9727-4.1602 3.4531-9.4258 6.3594-11.906 2.9219-2.5195 3.5586-6.4805 5.9883-7.2812 2.4102-0.75781 6.3438-5.4805 14.238-2.2812z"/>
  <path d="m967.88 284.07c2.5469-2.1484 4.9336 0.054688 5.8008-4.3984 0.86719-4.4414 2.8281-6.2148 0.57422-8.5586-2.2539-2.3477-6.3086-1.3477-9.2812-1.5195-3.0273-0.17188-5.2812 3.7188-8.707 4.8125-3.4258 1.0781-8.5195 3.8672-10 4.0781-1.4648 0.19922-6.0117 1.4414-6.4648 3.6016-0.46484 2.1328-2.5195 6.5859-0.69141 8.8516 1.8281 2.293 2.1719 3.7461 5.0938 4.3984 2.8945 0.60156 6.0391 2.8516 9.2812 1.5078 3.2383-1.375 7.0547-1.6133 7.9219-6.0547 0.83203-4.4258 5.0352-5.4648 6.4727-6.7188z"/>
  <path d="m910.88 335.54c3.6523-6.1602 2.7461-19.48 2.7461-19.48s-1.5859-12.238-15.414-13.652c-13.84-1.3984-24.535 2-31.332 7.1484-6.8672 5.1211-9.2656 12.84-9.0938 18.719 0.23828 5.9336 1.2148 16.359 9.0781 19.895 7.8398 3.5078 18.039 8.3594 21.652 5.8945 3.668-2.4414 5.668-5.1484 8.1875-5.4922 2.5078-0.34766 6.0781 1.1055 7.9219-3 1.8164-4.125 5.2539-8.3008 6.2539-10.031z"/>
  <path d="m525.79 393.85c3.0664-4.0391 5.2812-9.0547 3.8945-10.652-1.4258-1.6016-13.559 1.3086-15.055 3.3086-1.4648 1.9883-3.5078 8.8281-0.25391 10.773 3.2148 1.8906 9.9375-1.4414 11.414-3.4297z"/>
  <path d="m502.8 433.44c1.6133-9.9727-3.9453-23.867-3.9453-23.867s-22.691-12.867-28.852-10.227c-6.1875 2.6406-10.148 12.734-13.973 23.398-3.8516 10.68-1.625 18.094 5.8672 24.773 7.4922 6.6797 15.309 11.559 24.426 8.4648 9.1289-3.0234 15.223-14.637 16.477-22.543z"/>
  <path d="m444.11 464.97c2.5078-2.9727 5.0391-4.3086 1.7734-6.4922-3.293-2.2266-5.3477-4.1719-8.0273-1.8516-2.6133 2.2656-5.707 3.9219-3.0547 6.668 2.6289 2.7695 6.6016 4.8633 9.3086 1.6758z"/>
  <path d="m406.32 513.79c0.73438-3.625-2.1484-11.039-2.1484-11.039s-7.5352-17.559-17.188-12.148c-9.6797 5.3867-11.508 12.641-8.7461 17.172 2.7188 4.5078 4.2266 7.7188 8.7617 9.293 4.5586 1.6133 10.934 3.6797 13.602 2.4141 2.625-1.2383 5.1055-2.6367 5.7188-5.6914z"/>
  <path d="m393.17 459.62c2.4922-1.8516 4.4805-1.9453 4.0664-3.8281-0.41406-1.8789-2.625-2.9062-5.4141-3.6797-2.8125-0.8125-5.1875-1.6797-4.7461 3.332 0.41406 4.9766 3.9336 5.832 6.0938 4.1758z"/>
  <path d="m386.62 430.32c4.1602-3.1875 4.2383-15.465 2.1055-16.828-2.1211-1.3203-12.441-6.8516-16.719-3.4141-4.2539 3.4258-4.4648 9.5469-4.0781 14.266 0.35938 4.6914 4.1055 6.8516 8.0664 7.625 3.9883 0.79297 5.9453 2.0195 10.625-1.6484z"/>
  <path d="m355.84 440.93c1.6406-0.76172 3.9727-4.4414 2.8516-6.0664-1.1055-1.625-2.3867-3.2383-5.3203-1.9219-2.9609 1.3203-4.3477 2.8398-2.9727 5.1875 1.3203 2.3477 3.6289 3.6797 5.4414 2.8008z"/>
  <path d="m341.84 466.15c-0.65234-1.5859 3.1875-5.668 0.054687-5.8125-3.1484-0.16016-7.5352 1.375-6.1992 4.6016 1.3594 3.2266 1.5859 3.9336 4.3984 3.5469 2.7734-0.41797 2.2148-1.0703 1.7461-2.3359z"/>
  <path d="m233.87 557.77c1.7188-4.707 5.0938-8.1328 2.0117-11-3.0781-2.8398-4.9453-5.5469-9.3984-3.4258-4.5078 2.1055-7.1602 10.828-7.2656 12.039-0.10547 1.2148-6.1602 9.1875-2.8398 11.414 3.2656 2.2266 15.32-3.0391 17.398-7.5078 2.0547-4.4531 0.09375-1.5195 0.09375-1.5195z"/>
  <path d="m213.08 550c1.707-2.2266 5.293-6.6914 0.96094-8.1992-4.3984-1.4414-5.1211-0.44141-8.2812 0.30859-3.1992 0.71875-4.7188 0.66797-6.1719-1.2148-1.4414-1.8789-4.4922-2.3594-4.2656-7.1484 0.23828-4.8008 1.5859-5.5859 0.17188-9.2539-1.3867-3.6797-6.332-4.7734-11.574-6.1055-5.2539-1.3594-7.2383-0.77344-13.32 2.7734-6.0391 3.5352-3.9062 3.8398-8.5352 13.121-4.6797 9.293-10.359 19.625-5.4414 24.867 4.9062 5.2812 13.055 8.293 16.426 6.6133 3.3086-1.6523 5.1875-7.2539 10.625-8.9336 5.4258-1.6523 9.0938-0.97266 11.559-0.13281 2.5469 0.82813 10.039 1.2656 12.719-0.90625 2.7031-2.1758 4.1445-4.457 5.1289-5.7891z"/>
  <path d="m149.6 526.2c6.7852-6.2656 6.2148-8.6133 7.2539-16.199 1.0117-7.6133 0.21484-8.9727-4.293-11.309-4.4805-2.3477-9.7188-11.746-21.094 4.4414-11.426 16.238-10.652 19.691-9.3867 24.559 1.3086 4.9062 9.4414 11.785 12.852 10.414 3.332-1.3711 11.238-8.7305 14.668-11.906z"/>
  <path d="m650.36 286.56c7.7617-0.22656 14.066 7.332 14.398 11.84 0.34766 4.4805-5.7734 11.281-8.4648 12.215-2.707 0.94531-7.7734-0.87891-12.133-1.9609-4.4141-1.0938-10.465-1.625-11.055-5.7734-0.58594-4.1875-4.8516-8.4141-2.6523-10.973 2.1602-2.5742 3.2539-4.707 8.0391-5.1055 4.7461-0.41406 9.3359-0.1875 11.867-0.24219z"/>
  <path d="m650.96 276.83c4.8281-1.4922 7.6133-4.2148 4.8516-8.0547-2.8945-3.8398-0.97266-4.6797-10.121-7.0664-9.1211-2.3867-4.4922-3.8789-11.199-3.2266-6.6914 0.66797-5.4141 5.8516-4.7188 10.84 0.70703 4.9883 0.23828 5.6523 6.4531 7.5859 6.2539 1.9727 9.6016 1.5078 14.734-0.078125z"/>
  <path d="m677.31 273.09c2.4766-1.4922 1.3828-6.4258 1.3828-6.4258s-7.3867-4.332-8.6797-1.3086c-1.2656 3.0117-3.3984 6.1211-0.39844 9.1484 2.9336 2.9727 5.9062-0.30859 7.6953-1.4141z"/>
  <path d="m640.65 201.87c-4.668-4.0547-3.2812-1.2812-10.586-10.988-7.332-9.707-2.9062-14.281-11.441-14.785-8.5859-0.49219-11.668-4.5859-14.039 2.8125-2.375 7.3984-4.293 7.3984-0.85156 13.973 3.4922 6.6016 6.8008 18.055 13.84 19.867 7.0547 1.8125 12.785 6.3984 18.52 0.77344 5.7188-5.6133 6.8125-9.7344 4.5586-11.652z"/>
  <path d="m638.97 225.87c1.9219 0.066406 4.8672-1.5195 3.1719-3.5586-1.707-2.0273-4.5352-3.8945-5.6914-2.0391-1.1445 1.8516-0.61328 5.4922 2.5195 5.5977z"/>
  <path d="m715.16 266.33c5.6914-2.6523 7.1055-7.7852 7.4805-13.238 0.375-5.4141 0.67969-9.1328 0.67969-9.1328s-2.2148-5.6523-5.1602-8.625c-2.9453-2.9727-2.1719-5.0664-8.0547-7.0391-5.9336-2-13.625-4.3203-17.734-1.1992-4.0781 3.1328-12.32 9.1211-12.039 16.973 0.26562 7.9219 2.2148 13.574 8.8945 18.867 6.6797 5.2812 8.2148 6.1719 13.027 5.8008 4.6914-0.37891 6.8242 0.44922 12.906-2.4062z"/>
  <path d="m758.59 216.91c-5.2148 3 0.28125 6.1602-3.7734 11.309-4.1211 5.0938-8.3203 9.375-12.094 10.465-3.8398 1.1055-8.8789 1.5586-11.879 0.28125-3.0117-1.2656-5.3086-1.7852-6.4922-3.8945-1.1719-2.1055-3.2266-4.9219-2.2812-8.1719 0.94531-3.2539 4.1055-4.8281 4.4805-8.2539 0.34766-3.4805 0.78516-4.375 2.4922-6.6133 1.668-2.1992 4.1875-4.5352 4.6797-6.8672 0.55859-2.3477 3.8398-3.1211 4.9609-2.9727 1.1484 0.10547 3.1719 2.375 6.5195 3.8945 3.3086 1.5078 6.8008 4.1484 9.0938 2.375 2.2812-1.7461 1.5742-2.7734 1.7734-5.3203 0.23828-2.6016-0.80078-3.6133 4.0664-5.3867 4.8672-1.8125 5.4141-1.625 6.375-3.1875 0.90625-1.5078 2.6797-2.9062 2.2148-6.2383-0.48047-3.332 0.78516-10.586 0.78516-10.586s6.0547-7.1055 9.1602-9.5078c3.0547-2.3867 1.6914-5.8672 6.3086-7.4141 4.6016-1.4531 6.2266 0 11.414 0.66797 5.2148 0.69141 9.9336 0.28125 14.133 3.9336 4.1875 3.6797 6.9336 1.0117 7.2656 7.4805 0.34766 6.4922 4.5859 6.1484 0.76172 17.188-3.8398 11 1.2656 11.121-5.7461 15.508-7.0273 4.4258-9.5859 6.1875-15.398 5.3203-5.7734-0.90625-16.707 1.7617-17.012-0.45312-0.30859-2.2148-1.4805-4.3477-4.0664-4.5078-2.5859-0.22656-4.1211 0.85156-5.4531 3.3203-1.375 2.4258-1.7734 3.6133-4.9883 4.6406-3.3516 1.0078-5.9922 2.2188-7.3008 2.9922z"/>
  <path d="m866.39 142.49c-5.1992 1.3203-7.6797 1.6797-11.32 4.1602-3.6133 2.5078-4.707 2.6523-7.1602 5.2539-2.5078 2.6406-4.4141 0.93359-7.3203 4.4414-2.9062 3.5195-7.3867 10.121-8.9062 11.188-1.5586 1.0664-4.6133 1.4922-7.8516 0.53516-3.2539-0.97266-4.5195-0.21484-5.4414-2.3477-0.83984-2.1719-0.32031-4.4922 0.67969-7.1875 1.0664-2.7188 5.332-4.4414 5.332-4.4414s4.0938 0.85156 7.8516-2.5352c3.7734-3.3594 4.3477-1.4648 6.2656-5.9883 1.9062-4.5078-1.0781-3.5195 3.0781-6.1055 4.1602-2.5586 5.0547-4.1211 5.7344-5.6016 0.65234-1.5078 2.1875-2.5859 2.7617-6.375 0.625-3.7461-0.1875-9.5586-1.6523-11.625-1.3867-2.0664-3.668-2.0273-3.5742-5.4414 0.078125-3.4141 2.6133-3.4805 3.0781-6.3867 0.41406-2.9219-1.3203-7.1719 0.10547-9.0781 1.3984-1.9062 3.6016-6.4648 4.0391-9.3594 0.44141-2.9062 5.3203-10.375 7.9883-11.879 2.5742-1.4922 4.8672-7.4922 11.547-8.4258 6.6406-0.94531 14.309-2.8672 20.559-0.64062 6.2539 2.1992 16.238 0.53516 20.945 3.8281 4.6914 3.3086 9.332 8.0273 12.348 11.309 3 3.2383 4.7734 21.945 0.29297 32.199-4.5195 10.281-6.0781 17.309-12.453 22.148-6.3867 4.8789-5.707 5.8789-13.441 8.9883-7.7734 3.0664-9.2383 0.73438-10.852 5.4805-1.6016 4.7617-1.4141 6.1211-0.011719 7.9219 1.3867 1.7852 2.6016 2.4805 0.58594 4.1719-2.0273 1.707-5.5742 2.4805-6.1484 0.58594-0.54687-1.9219-3.5352-0.89453-3.1875-4.6406 0.30859-3.7461-1.1719-4.3867-3.9453-1.7188-2.7344 2.668-5.1211 3.5469-6.707 2.6523-1.5352-0.92188-3.0273-3.2539-1.3203-3.5078 1.6406-0.22656 7.7617-5.0391 7.3867-7.8125-0.39844-2.7852 1.1055-2.1602-3.0391-3.2812-4.0586-1.0703-6.2461-0.48437-6.2461-0.48437z"/>
  <path d="m998.52 155.97c9.0938 0.96094 10.094-6.9727 7.2148-16.105-2.8672-9.1211-4.4141-14.48-13.734-13.16-9.3594 1.332-19.707 1.2148-20.055 9.9883-0.34766 8.7852 7.4141 18.785 12.215 18.922 4.7617 0.089843 11.105-0.003907 14.359 0.35547z"/>
  <path d="m1032.8 121.29c4.5742-2.0781 4.3203-2.9609 6.1602-6.9219 1.8008-3.9453 1.293-5.7617 2.5742-8.0117 1.2266-2.2812 8.1055-0.078125 10.668 0.87891 2.4922 0.94531 6.2812 1.7344 11.094-1.5586 4.8008-3.3203 4.5859-4.8789 5.9219-6.6523 1.3203-1.7461 4.2539-7.1875 6.4922-8.0391 2.2539-0.85156 7.625-5.5586 10.906-6.8008 3.2266-1.2656 6.0547-7.4648 3.2148-7.0547-2.8398 0.39844-7.2383 4.7188-10.266 5.9062-3.0117 1.2383-7.0938 3.668-8.5352 4.8945-1.3984 1.2539-2.1055 3.7617-5.1875 2.3594-3.0938-1.4531 0.28125 0.19922-7.8008-1.0547-8.0938-1.2148-8.7734-4.2539-14.414 0.71875-5.6016 5.0117 0.64062 10.188-6.0547 12.988-6.7344 2.7852-8.9336-3.4922-14.988 2.1211-6.0781 5.6016-4.4141 7.9883-5.1484 12.332-0.71875 4.293-1.1719 6.4922 2.7344 6.1992 3.9492-0.27734 10.148-1.1562 12.629-2.3047z"/>
  <path d="m1024 134.96c1.5078-1.0938 2.0781-0.29297 1.375-3.6133-0.78516-3.332-1.4648-4.8125-3.6133-5.0391-2.1719-0.22656-3.4648-0.30859-5.0117 0.17188-1.5078 0.46484-3.2266 1.2539-2.5742 2.1992 0.67969 0.98828 0.32031 4.1992 1.8516 5.8125 1.5586 1.6133 4.3984 3.0547 7.9727 0.46875z"/>
  <path d="m1037.3 137.54c0.58594-1.1328-0.82812-3.8125-0.82812-3.8125s-4.8672 2.7852-3.6523 3.668c1.1602 0.90234 4.4805 0.14453 4.4805 0.14453z"/>
  <path d="m1052.6 141.96c1.6523-1.3086 2.8398-2.2266 2.0938-3.9609-0.78516-1.7461-2.7852-2.7734-4.0938-1.0273-1.3477 1.7852-4.0781 5.0547-1.332 5.7188 2.7734 0.66797 3.332-0.73047 3.332-0.73047z"/>
  <path d="m1049.4 156.13c1.8672-1.4414-1.4258-4.5195-1.4258-4.5195s-2.6914 1.3984-3.7344 3.3984c-1.0391 2.0117-0.28125 3.4805 1.8008 3.1875 2.0391-0.27734-0.44141 0.85547 3.3594-2.0664z"/>
  <path d="m1121.5 75.574c4.375-7.3867 4.1484-11.922 4.1484-11.922s-9.5859-11.828-17.199-9.7188c-7.6133 2.1719-14.762 5.5195-14.48 11.293 0.28125 5.7461-0.42578 10.066 5.4922 12.68 5.8789 2.5859 7.1875 3.9727 12.426 2.1719 5.2656-1.7695 8.7852-3.0664 9.6133-4.5039z"/>
  <path d="m1148.5 51.707c1.0547-3.0938 1.6133-7.3086-1.0547-7.4922-2.625-0.14844-5.8945 1.1055-5.9883 4.2812-0.066407 3.1602 0.22656 5.2383 3.0547 4.8398 2.8281-0.375 3.457 0.050781 3.9883-1.6289z"/>
  <path d="m1164.5 39.719c1.6914-1.9453 1.9336-3.4414-0.25391-3.6406-2.1484-0.23828-2.3477 0.32031-3.7188 1.8398-1.3594 1.5195-0.19922 3.9727 0.55859 3.8672 0.80078-0.11719 2.6289-1.1445 3.4141-2.0664z"/>
 </g>
</svg>
