<?xml version="1.0" encoding="UTF-8"?>
<svg width="1200pt" height="1200pt" version="1.1" viewBox="0 0 1200 1200" xmlns="http://www.w3.org/2000/svg">
 <path d="m676.86 142.53c89.621-57.004 207.93-0.027344 219.24 105.58 5.918 55.262 43.277 102.11 95.836 120.17 100.45 34.527 129.66 162.55 54.148 237.24-39.516 39.082-52.848 97.496-34.203 149.85 35.633 100.06-46.242 202.72-151.72 190.25-55.191-6.5273-109.18 19.473-138.48 66.691-56.012 90.242-187.32 90.242-243.34 0-29.309-47.219-83.293-73.219-138.48-66.691-105.48 12.473-187.35-90.191-151.72-190.25 18.645-52.355 5.3125-110.77-34.203-149.85-75.516-74.688-46.297-202.71 54.148-237.24 52.559-18.066 89.918-64.914 95.836-120.17 11.312-105.61 129.62-162.58 219.24-105.58 46.887 29.828 106.8 29.828 153.7 0z"/>
</svg>
