<?xml version="1.0" encoding="UTF-8"?>
<svg width="1200pt" height="1200pt" version="1.1" viewBox="0 0 1200 1200" xmlns="http://www.w3.org/2000/svg">
 <g>
  <path d="m600.96 524.4c-1.9453-12.094-8.8203-22.836-18.992-29.66-10.172-6.8281-22.719-9.1211-34.648-6.3398h-1.6797c-3.8516 0.98437-7.9414-0.003907-10.922-2.6367-10.734-10.371-25.992-14.594-40.531-11.227-14.539 3.3672-26.383 13.871-31.469 27.906-1.5078 3.6836-4.7422 6.3789-8.6406 7.1992h-1.6797c-13.332 3.0664-24.488 12.145-30.207 24.57-5.7227 12.43-5.3594 26.805 0.98047 38.93 6.3438 12.121 17.941 20.621 31.414 23.016 13.469 2.3906 27.289-1.5977 37.414-10.797 6.7109-6.3945 14.988-10.906 24-13.078 9.0977-2.1328 18.605-1.7148 27.48 1.1992 14.582 4.5469 30.477 1.2344 42.031-8.7539 11.551-9.9922 17.121-25.242 14.727-40.328z"/>
  <path d="m374.88 451.56c-7.0547 4.207-12.188 11.004-14.297 18.941-2.1055 7.9414-1.0234 16.391 3.0195 23.539 2.5391 7.8047 8.0195 14.312 15.277 18.145 7.2578 3.832 15.723 4.6836 23.602 2.375 7.1641-4.1289 12.43-10.895 14.672-18.855 2.2422-7.9609 1.2812-16.48-2.6719-23.742-2.5312-7.9648-8.1328-14.598-15.562-18.426-7.4336-3.8242-16.082-4.5391-24.039-1.9766z"/>
  <path d="m593.88 470.16c8.2266-1.3281 15.586-5.8633 20.469-12.613 4.8828-6.75 6.8867-15.16 5.5742-23.387 0.46484-8.2188-2.3008-16.293-7.7031-22.5-5.4023-6.2109-13.016-10.066-21.219-10.738-8.2031 1.3516-15.535 5.9023-20.391 12.648-4.8594 6.7461-6.8477 15.141-5.5312 23.352-0.52734 8.2109 2.1953 16.305 7.5859 22.523 5.3906 6.2188 13.012 10.07 21.215 10.715z"/>
  <path d="m467.89 411.05c6.5586 20.375-1.3164 41.145-17.59 46.383-16.277 5.2422-34.789-7.0273-41.352-27.402s1.3125-41.145 17.59-46.387c16.273-5.2383 34.789 7.0312 41.352 27.406"/>
  <path d="m550.57 395.82c3.0625 21.188-8.1719 40.344-25.094 42.793-16.922 2.4453-33.125-12.742-36.188-33.93-3.0664-21.188 8.168-40.344 25.09-42.793 16.926-2.4492 33.125 12.742 36.191 33.93"/>
  <path d="m747.72 751.2h-1.6797c-3.8945-0.81641-7.1328-3.5156-8.6406-7.1992-5.082-14.031-16.926-24.535-31.465-27.902-14.543-3.3711-29.797 0.85547-40.535 11.223-2.9766 2.6328-7.0664 3.625-10.918 2.6406h-1.6797c-13.395-3.1016-27.465 0.21094-38.07 8.9609-10.602 8.75-16.523 21.938-16.023 35.676 0.50391 13.738 7.375 26.457 18.59 34.41 11.215 7.9492 25.492 10.223 38.625 6.1523 8.8867-2.8555 18.375-3.2695 27.477-1.1992 9.0117 2.1719 17.293 6.6836 24 13.078 10 9.4648 23.836 13.723 37.426 11.52 13.59-2.2031 25.375-10.617 31.867-22.754 6.4961-12.137 6.9609-26.609 1.2539-39.137-5.7031-12.527-16.926-21.68-30.344-24.746z"/>
  <path d="m825.12 692.52c-10.727-2.3398-21.93 0.44141-30.312 7.5352-8.3789 7.0898-12.984 17.676-12.453 28.641 0.53125 10.965 6.1367 21.059 15.164 27.305 10.543 2.0039 21.426-0.89844 29.566-7.8867 8.1445-6.9922 12.664-17.305 12.281-28.031-0.38281-10.723-5.625-20.691-14.246-27.082z"/>
  <path d="m634.92 678c1.3164-8.207-0.67188-16.605-5.5312-23.352-4.8555-6.7461-12.188-11.293-20.391-12.648-10.617 1.8555-19.793 8.4805-24.902 17.969s-5.582 20.797-1.2891 30.68c4.2969 9.8828 12.887 17.254 23.312 19.992 8.0938-0.64453 15.621-4.4102 20.996-10.5 5.3711-6.0898 8.1719-14.027 7.8047-22.141z"/>
  <path d="m749.64 698.4c16.32 5.2812 34.801-6.9609 41.398-27.359 6.6016-20.398-1.3203-41.16-17.52-46.441s-34.801 7.0781-41.398 27.48c-6.6016 20.402 1.3203 41.16 17.52 46.32z"/>
  <path d="m683.42 600.59c16.926 2.3945 28.219 21.516 25.223 42.707-2.9961 21.191-19.148 36.434-36.078 34.039-16.926-2.3945-28.219-21.516-25.223-42.707s19.148-36.434 36.078-34.039"/>
 </g>
</svg>
